<?xml version="1.0" standalone="no"?>
<!DOCTYPE svg PUBLIC "-//W3C//DTD SVG 20010904//EN"
 "http://www.w3.org/TR/2001/REC-SVG-20010904/DTD/svg10.dtd">
<svg version="1.0" xmlns="http://www.w3.org/2000/svg"
 width="512.000000pt" height="512.000000pt" viewBox="0 0 512.000000 512.000000"
 preserveAspectRatio="xMidYMid meet">
<metadata>
Created by potrace 1.14, written by Peter Selinger 2001-2017
</metadata>
<g transform="translate(0.000000,512.000000) scale(0.100000,-0.100000)"
fill="#ab9ff2" stroke="none">
<path d="M3498 4715 c-1 -2 -30 -6 -63 -9 -505 -51 -1082 -311 -1620 -730 -49
-39 -92 -73 -95 -76 -3 -3 -21 -18 -40 -34 -168 -137 -476 -445 -616 -616 -16
-19 -37 -44 -47 -55 -65 -72 -300 -396 -384 -531 -106 -169 -131 -214 -222
-399 -221 -446 -320 -815 -316 -1180 2 -194 17 -277 71 -391 62 -129 147 -204
283 -251 104 -36 293 -41 426 -13 261 57 480 181 714 404 74 71 212 227 266
301 17 22 34 44 38 50 27 35 102 142 128 185 17 27 32 50 34 50 2 0 -6 -33
-16 -72 -25 -93 -31 -253 -14 -334 36 -166 144 -279 301 -314 239 -54 563 74
827 326 114 108 223 241 290 354 l27 45 -6 -41 c-37 -244 55 -386 260 -401
131 -9 270 35 417 133 78 51 231 199 300 289 53 69 169 241 169 250 0 4 9 20
20 35 27 38 123 232 165 334 112 271 195 592 230 881 13 107 12 470 -1 575
-40 310 -137 565 -290 766 -45 59 -162 178 -216 219 -138 106 -323 185 -525
226 -83 16 -152 22 -300 25 -105 1 -193 1 -195 -1z m-87 -1095 c44 -12 118
-76 141 -121 50 -99 61 -274 23 -369 -51 -128 -146 -194 -260 -182 -117 11
-211 117 -232 262 -40 269 119 468 328 410z m845 -11 c98 -47 155 -154 160
-300 6 -166 -54 -293 -164 -345 -87 -41 -212 -9 -277 71 -88 107 -104 320 -34
456 60 119 203 173 315 118z"/>
</g>
</svg>
