<svg xmlns="http://www.w3.org/2000/svg" width="164" height="42"><g fill="none" fill-rule="evenodd"><path fill="#2D505F" d="M50 25.523V12.957L52.957 10h8.29l2.85 2.851v2.086h-2.534v-1.188l-1.531-1.531h-5.86l-1.638 1.636v10.772l1.637 1.636h5.861l1.531-1.53v-1.189h2.535v2.086l-2.852 2.851h-8.29L50 25.523ZM67.134 10h12.408v2.218h-9.874v5.887h9.108v2.191h-9.108v5.966h9.874v2.218H67.134V10Zm29.145 12.672v5.808h-2.534v-5.174l-2.191-2.35h-6.31v7.524H82.71V10h10.903l2.56 2.56v5.756l-2.032 2.033 2.138 2.323Zm-11.035-3.88h7.234l1.188-1.162v-4.304l-1.188-1.161h-7.234v6.626Zm18.718-6.6h-5.57V10h13.674v2.191h-5.57V28.48h-2.534V12.191Zm10.084 13.331V12.957L117.003 10h8.712l2.957 2.957v12.566l-2.957 2.957h-8.712l-2.957-2.957Zm10.455.74 1.637-1.637V13.854l-1.637-1.636h-6.283l-1.637 1.636v10.772l1.637 1.636h6.283Zm21.437-3.591v5.808h-2.535v-5.174l-2.191-2.35h-6.31v7.524h-2.534V10h10.903l2.561 2.56v5.756l-2.033 2.033 2.139 2.323Zm-11.036-3.88h7.234l1.188-1.162v-4.304l-1.188-1.161h-7.234v6.626ZM154.808 10h2.534l6.653 18.48h-2.613l-1.637-4.7h-7.313l-1.637 4.7h-2.613L154.808 10Zm4.277 11.642-2.983-8.632h-.053l-2.93 8.632h5.966Z"/><g fill-rule="nonzero"><path fill="#79F2A5" stroke="#2D505F" stroke-width="1.44" d="M35.143 1.483V30.94L18.4 40.6 1.657 30.941V1.483z"/><path fill="#3399D6" stroke="#2D505F" stroke-width="1.44" d="m18.4 1.966 16.743 9.658v19.317L18.4 40.6 1.657 30.941V11.624z"/><path fill="#40DCFF" d="M18.4 1.966 35.143 30.94 18.4 40.6 1.657 30.941z"/><path stroke="#2D505F" stroke-width="1.44" d="m2.069 11.806 32.82 19.052M34.889 11.806 2.069 30.858M18.479 2.383v37.676M18.41 2.156 2.002 30.77M18.348 1.945 34.912 30.77M18.4 1.966l16.743 9.658v19.317L18.4 40.6 1.657 30.941V11.624z"/></g></g></svg>