<svg width="137" height="28" viewBox="0 0 137 28" fill="none" xmlns="http://www.w3.org/2000/svg">
<path d="M37.4297 10.8395C37.4399 10.5235 37.5678 10.2227 37.7883 9.9961C37.9014 9.89095 38.0308 9.80477 38.1714 9.74088C38.3183 9.68274 38.4734 9.64824 38.6311 9.63867H43.1019C43.3374 9.64148 43.5669 9.71316 43.7621 9.84486C43.9573 9.97657 44.1097 10.1625 44.2005 10.3798C44.2586 10.5267 44.2931 10.6818 44.3027 10.8395V11.9153H43.1276V10.8395H38.6568V16.7412H43.1276V15.6653H44.3033V16.7412C44.3005 16.9767 44.2288 17.2062 44.0971 17.4014C43.9654 17.5966 43.7794 17.749 43.5621 17.8398C43.4153 17.8979 43.2601 17.9324 43.1025 17.942H38.6317C38.3962 17.9392 38.1667 17.8675 37.9715 17.7358C37.7763 17.6041 37.6239 17.4181 37.5331 17.2008C37.4749 17.054 37.4404 16.8988 37.4309 16.7412V10.8395" fill="#191D34"/>
<path d="M53.2685 9.66406V17.916H52.0934V14.3895H47.3668V17.916H46.166V9.66406H47.3668V13.215H52.0934V9.66406H53.2685Z" fill="#191D34"/>
<path d="M59.0424 9.66406L62.236 17.916H61.0609L60.3197 16.0254H56.5895L55.8483 17.916H54.6738L57.8674 9.66406H59.0424ZM57.0497 14.8503H59.8589L58.4537 11.1972L57.0497 14.8503Z" fill="#191D34"/>
<path d="M64.8177 9.66406H63.6426V17.916H64.8177V9.66406Z" fill="#191D34"/>
<path d="M68.138 17.916H66.9629V9.66406H68.138L73.0941 16.0768V9.66406H74.2692V17.916H73.0941L68.138 11.5032V17.916Z" fill="#191D34"/>
<path d="M77.5917 14.3904C77.3563 14.3876 77.1268 14.3159 76.9315 14.1842C76.7363 14.0525 76.5839 13.8666 76.4932 13.6493C76.435 13.5024 76.4005 13.3473 76.391 13.1896V10.8395C76.4012 10.5235 76.5291 10.2227 76.7496 9.9961C76.8627 9.89095 76.9921 9.80477 77.1327 9.74088C77.2796 9.68274 77.4347 9.64824 77.5923 9.63867H81.6035C81.839 9.64148 82.0685 9.71316 82.2637 9.84486C82.4589 9.97657 82.6113 10.1625 82.7021 10.3798C82.7603 10.5267 82.7948 10.6818 82.8043 10.8395V11.9153H81.6292V10.8395H77.6174V13.1896H81.6286C81.8641 13.1924 82.0936 13.2641 82.2888 13.3958C82.484 13.5275 82.6364 13.7135 82.7272 13.9308C82.7854 14.0776 82.8199 14.2328 82.8294 14.3904V16.7406C82.8266 16.9761 82.7549 17.2056 82.6232 17.4008C82.4915 17.596 82.3056 17.7484 82.0883 17.8392C81.9414 17.8973 81.7863 17.9318 81.6286 17.9414H77.5152C77.2798 17.9386 77.0503 17.8669 76.855 17.7352C76.6598 17.6035 76.5074 17.4175 76.4167 17.2002C76.3585 17.0534 76.324 16.8982 76.3145 16.7406V15.6647H77.4895V16.7406H81.6029V14.3904H77.5917Z" fill="#191D34"/>
<path d="M84.8984 9.66406H90.9281V10.8391H86.0741V13.215H90.2132V14.3901H86.0741V16.7409H90.9281V17.916H84.8984V9.66406Z" fill="#191D34"/>
<path d="M92.6895 10.8395C92.6997 10.5235 92.8276 10.2227 93.0481 9.9961C93.1612 9.89095 93.2906 9.80477 93.4312 9.74088C93.578 9.68274 93.7332 9.64824 93.8908 9.63867H98.3617C98.5971 9.64148 98.8266 9.71316 99.0218 9.84486C99.2171 9.97657 99.3695 10.1625 99.4602 10.3798C99.5184 10.5267 99.5529 10.6818 99.5624 10.8395V11.9153H98.3874V10.8395H93.9165V16.7412H98.3874V15.6653H99.563V16.7412C99.5602 16.9767 99.4886 17.2062 99.3568 17.4014C99.2251 17.5966 99.0392 17.749 98.8219 17.8398C98.675 17.8979 98.5199 17.9324 98.3623 17.942H93.8914C93.656 17.9392 93.4265 17.8675 93.2312 17.7358C93.036 17.6041 92.8836 17.4181 92.7929 17.2008C92.7347 17.054 92.7002 16.8988 92.6907 16.7412V10.8395" fill="#191D34"/>
<path d="M101.428 9.66406H102.603V16.7409H107.33V9.66406H108.505V16.7409C108.502 16.9763 108.431 17.2058 108.299 17.4011C108.167 17.5963 107.981 17.7487 107.764 17.8394C107.617 17.8976 107.462 17.9321 107.304 17.9417H102.578C102.342 17.9388 102.113 17.8672 101.918 17.7355C101.722 17.6038 101.57 17.4178 101.479 17.2005C101.421 17.0537 101.387 16.8985 101.377 16.7409V9.66406" fill="#191D34"/>
<path d="M117.165 12.6024C117.165 13.7518 116.68 14.4164 115.684 14.5694L117.242 17.9166H115.939L114.406 14.6208H111.825V17.9166H110.65V9.66406H115.173C116.501 9.66406 117.165 10.3281 117.165 11.6825V12.6024ZM111.8 13.4457H115.07C115.317 13.4603 115.561 13.388 115.76 13.2413C115.915 13.0464 115.988 12.7992 115.965 12.5516V11.7333C115.979 11.4866 115.907 11.2425 115.76 11.0436C115.565 10.889 115.318 10.8158 115.07 10.8391H111.8V13.4457Z" fill="#191D34"/>
<path d="M120.308 9.66406H119.133V17.916H120.308V9.66406Z" fill="#191D34"/>
<path d="M121.713 9.66406H128.33V10.8391H125.622V17.916H124.447V10.8391H121.713V9.66406Z" fill="#191D34"/>
<path d="M130.297 9.66406L132.699 13.5216L135.101 9.66406H136.48L133.287 14.6459V17.916H132.112V14.6459L128.918 9.66406H130.297Z" fill="#191D34"/>
<path d="M23.8878 20.6906L12.2852 0.597656" stroke="#191D34" stroke-width="0.28" stroke-miterlimit="10"/>
<path d="M0.681641 7.28906L23.8869 20.6914" stroke="#191D34" stroke-width="0.28" stroke-miterlimit="10"/>
<path d="M23.8869 7.28906L0.681641 20.6914" stroke="#191D34" stroke-width="0.28" stroke-miterlimit="10"/>
<path d="M12.2852 27.4023V0.597656" stroke="#191D34" stroke-width="0.28" stroke-miterlimit="10"/>
<path d="M23.8869 20.6914H0.681641" stroke="#191D34" stroke-width="0.28" stroke-miterlimit="10"/>
<path d="M12.2843 0.597656L0.681641 20.6906" stroke="#191D34" stroke-width="0.28" stroke-miterlimit="10"/>
<path d="M23.8869 7.28906H0.681641" stroke="#191D34" stroke-width="0.28" stroke-miterlimit="10"/>
<path d="M12.2852 27.403L23.8878 7.28906" stroke="#191D34" stroke-width="0.28" stroke-miterlimit="10"/>
<path d="M0.681641 7.28906L12.2843 27.403" stroke="#191D34" stroke-width="0.28" stroke-miterlimit="10"/>
<path d="M23.8869 20.6906V7.28835L12.2843 0.597656L0.681641 7.28835V20.6906L12.2843 27.4023L23.8869 20.6906Z" stroke="#191D34" stroke-width="0.28" stroke-miterlimit="10"/>
<path d="M0.681641 14H23.8869" stroke="#191D34" stroke-width="0.28" stroke-miterlimit="10"/>
<path d="M6.37891 23.9931L18.1722 4.00586" stroke="#191D34" stroke-width="0.28" stroke-miterlimit="10"/>
<path d="M17.8951 24.1634L6.65234 3.83789" stroke="#191D34" stroke-width="0.28" stroke-miterlimit="10"/>
<path d="M18.0011 10.6553L16.1165 7.37334L8.49458 7.28906L6.39844 10.6553L18.0011 17.346L15.9049 20.6932H8.32543L6.39844 17.346" stroke="#191D34" stroke-width="3" stroke-miterlimit="10" stroke-linecap="round" stroke-linejoin="round"/>
<path d="M18.0864 4.00456L12.2003 0.597656L0.597656 7.28835V20.6906L12.2003 27.4023L17.8324 24.1627" stroke="#191D34" stroke-width="2" stroke-miterlimit="10" stroke-linecap="round" stroke-linejoin="round"/>
</svg>
