<svg xmlns="http://www.w3.org/2000/svg" xml:space="preserve" width="221" height="61" viewBox="0 0 221.3 61.1"><path d="M114.1 8.952v25h31.3v-6.7h-24.5v-6.9h24.5v-20.4H123l-8.9 9zm24.4-2.2v6.7h-17.7v-1.7l5-5h12.7zM201.9 6.752h19.4v-6.7h-22.2l-9.1 8.9v11.4h24.5v6.9H190v6.7h31.3v-20.4h-24.4v-1.9l5-4.9zM152.1 8.952v25h6.9v-22.2l4.8-5h12.7v27.2h6.9v-34H161l-8.9 9zM38 36.052v25h31.3v-6.7H44.9v-6.7h24.4v-20.3H47l-9 8.7zm24.5-2.1v6.7H44.8v-1.9l5-5h12.7v.2zM6.7 29.352v-22.6H0v54.4h6.7v-22.2l5-5h12.7v27.2h6.9v-34H8.9l-2.2 2.2zM107.2 47.552v-9.1l-10-7.8 10-7.8v-9.3h-6.7v5.8l-8.9 6.9-8.8-6.9v-5.8h-6.7v9.2l10 7.8-10 7.8v9.1h6.7v-5.8l8.8-6.9 8.9 6.9v5.8h6.7zM82.8-.048H72.6l-10.2 10.2v10.2h6.7v-7.3l6.2-6.2h7.3v-6.9zM114.1 48.152l-6.3 6.3h-7.3v6.7h10.2l10.2-10.2v-10.2h-6.7v7.4z"/></svg>