<svg width="86" height="27" viewBox="0 0 86 27" fill="none" xmlns="http://www.w3.org/2000/svg">
<g clip-path="url(#clip0_19005_105249)">
<path d="M6.61512 6.47869H7.6067V21.4486C7.6067 24.7632 5.0052 27 0 27V23.8518C2.14914 23.8518 3.22328 22.9681 3.22328 21.1723V6.47869H6.61512ZM3.70402 4.04782C3.47612 3.83026 3.29466 3.57071 3.17082 3.28344C3.04698 2.99617 2.98334 2.6879 2.98334 2.37628C2.98334 2.06465 3.04698 1.75638 3.17082 1.46911C3.29466 1.18184 3.47612 0.922287 3.70402 0.704735C3.92676 0.482143 4.1925 0.304909 4.48662 0.183953C4.77988 0.0621578 5.0955 0 5.41456 0C5.73362 0 6.04924 0.0621578 6.34336 0.183113C6.63748 0.304069 6.90322 0.481303 7.12596 0.703895C7.35386 0.921447 7.53532 1.181 7.65916 1.46827C7.783 1.75554 7.84664 2.06381 7.84664 2.37544C7.84664 2.68706 7.783 2.99533 7.65916 3.2826C7.53532 3.56987 7.35386 3.82942 7.12596 4.04698C6.90322 4.26957 6.63748 4.4468 6.34336 4.56776C6.04924 4.68871 5.73362 4.75087 5.41456 4.75087C5.0955 4.75087 4.77988 4.68871 4.48576 4.56776C4.19164 4.4468 3.9259 4.26957 3.70316 4.04698L3.70402 4.04782Z" fill="#7A8AA0"/>
<path d="M20.2976 6.4774H24.6811V20.646H20.2976V18.5747C19.6337 19.3281 18.8081 19.9287 17.8802 20.3352C16.9514 20.7418 15.9426 20.9434 14.9261 20.9257C11.6443 20.9257 9.4668 18.9375 9.4668 15.2089V6.47992H13.8519V13.5793C13.8519 16.0337 14.8418 17.2803 16.8508 17.2803C18.8597 17.2803 20.2994 15.8162 20.2994 12.9149L20.2976 6.47656V6.4774Z" fill="#7A8AA0"/>
<path d="M52.0347 11.93V20.6573H47.6521V13.421C47.6521 11.0456 46.719 9.85783 44.8511 9.85951C43.0416 9.85951 41.4859 11.3496 41.4859 14.2232V20.6582H37.1025V13.4218C37.1025 11.0464 36.1694 9.85868 34.3032 9.86035C32.4937 9.86035 30.938 11.3505 30.938 14.224V20.659H26.5537V6.48787H30.938V8.53152C32.3802 6.98514 34.077 6.21152 36.086 6.21152C38.6307 6.21152 40.2742 7.17833 41.0344 9.11194C42.591 7.17245 44.4581 6.20312 46.6347 6.20312C49.9999 6.20312 52.0355 7.97042 52.0355 11.9292L52.0347 11.93Z" fill="#7A8AA0"/>
<path d="M68.3311 8.13685C69.745 9.46232 70.4519 11.2565 70.4519 13.5505C70.4519 15.8444 69.745 17.6411 68.3311 18.9363C66.9173 20.2618 65.1354 20.9246 62.957 20.9246C61.034 20.9246 59.4783 20.3173 58.2898 19.1018V26.7262H53.9072V6.47959H58.2898V8.00245C59.4783 6.78869 61.034 6.18056 62.957 6.17972C65.1345 6.17468 66.9173 6.83741 68.3311 8.13685ZM65.8707 13.5505C65.8707 11.0095 64.259 9.32456 62.0815 9.32456C59.904 9.32456 58.2906 10.9264 58.2906 13.5505C58.2906 16.1745 59.9324 17.7763 62.0815 17.7763C64.2307 17.7763 65.8707 16.0914 65.8707 13.5505Z" fill="#7A8AA0"/>
<path d="M86.0001 16.7344V20.08H72.2969V16.7344H86.0001Z" fill="#7A8AA0"/>
</g>
<defs>
<clipPath id="clip0_19005_105249">
<rect width="86" height="27" fill="white"/>
</clipPath>
</defs>
</svg>
