<svg width="113" height="18" viewBox="0 0 113 18" fill="none" xmlns="http://www.w3.org/2000/svg">
<path d="M5.82203 16.0709C3.36445 15.5625 1.78806 12.8125 1.78806 8.97631C1.78806 5.13987 3.34142 2.38984 5.79926 1.88118C5.98476 1.83512 6.10067 1.65039 6.07739 1.46539V1.41934C6.05436 1.18804 5.89188 1.04936 5.68335 1.09567C2.83148 1.69644 1 4.72384 1 8.97631C1 13.2052 2.83174 16.2557 5.68335 16.8337C5.89188 16.8797 6.07739 16.7413 6.10041 16.51V16.4639C6.1237 16.2559 6.00779 16.1173 5.82229 16.0709H5.82203ZM7.35211 1.41934V1.48868C7.32908 1.67367 7.44498 1.83538 7.63049 1.88143C10.0881 2.39009 11.6647 5.14013 11.6647 8.97657C11.6647 12.8125 10.0881 15.5395 7.63049 16.0712C7.44498 16.0942 7.32908 16.2559 7.35236 16.4639V16.5333C7.37539 16.7643 7.56089 16.88 7.76942 16.8337C10.6213 16.2559 12.4297 13.2055 12.4297 8.97631C12.4297 4.72409 10.6213 1.6967 7.76968 1.09567C7.56089 1.04961 7.37565 1.18829 7.35236 1.41934H7.35211ZM33.8671 16.3017L21.811 1.14173C21.7468 1.06571 21.6565 1.01645 21.5579 1.00362C21.4592 0.990786 21.3593 1.01532 21.2778 1.07239C21.0923 1.21106 21.0693 1.46514 21.2082 1.62685L33.2646 16.7868C33.3342 16.8795 33.4501 16.9255 33.566 16.9255C33.6589 16.9255 33.7282 16.9025 33.7978 16.8564C33.9833 16.7175 34.0066 16.4634 33.8674 16.3017H33.8671ZM28.1869 7.47362C28.2796 7.51967 28.3259 7.56598 28.4188 7.56598C28.5347 7.56598 28.6506 7.51993 28.7202 7.42731L33.3339 1.62685C33.4731 1.46514 33.4265 1.21081 33.2643 1.07213C33.1021 0.956735 32.847 0.979763 32.7311 1.14147L28.1173 6.94193C27.9782 7.10389 28.0014 7.38125 28.1869 7.47362ZM26.3785 9.73853C26.2163 9.59986 25.9612 9.64617 25.822 9.80762L20.675 16.3015C20.5361 16.4634 20.5591 16.7175 20.7216 16.8562C20.7912 16.9022 20.8838 16.9255 20.9764 16.9255C21.0923 16.9255 21.2085 16.8795 21.2778 16.7868L26.4481 10.293C26.5873 10.1313 26.541 9.87721 26.3785 9.73853ZM67.222 1.00279C67.0134 1.00279 66.8279 1.1645 66.8279 1.39554V16.5555C66.8279 16.7636 67.0134 16.9255 67.222 16.9255C67.4308 16.9255 67.6162 16.7636 67.6162 16.5558V1.3958C67.6162 1.1645 67.4308 1.00279 67.222 1.00279ZM76.6815 16.3248L72.2067 9.99261H72.4388C74.9194 9.99261 76.9597 7.98202 76.9597 5.50909C76.9597 3.01312 74.9194 1.00253 72.4388 1.00253H69.2162C69.0074 1.00253 68.8219 1.1645 68.8219 1.39554C68.8219 1.60356 69.0074 1.7883 69.2162 1.7883H72.4388C74.5021 1.76527 76.1716 3.45219 76.1716 5.50909C76.1716 7.5427 74.5021 9.22988 72.4388 9.22988H69.2162C69.0074 9.22988 68.8219 9.39158 68.8219 9.62263C68.8219 9.83065 69.0074 9.99235 69.2162 9.99235H71.2332L76.0324 16.7638C76.102 16.8795 76.2412 16.9258 76.3571 16.9258C76.4267 16.9258 76.5193 16.9028 76.5889 16.8564C76.7511 16.7408 76.7975 16.4867 76.6815 16.3248ZM89.7483 1.00279C89.5395 1.00279 89.354 1.16475 89.354 1.3958V16.5558C89.354 16.7638 89.5395 16.9255 89.7483 16.9255C89.9568 16.9255 90.1424 16.7638 90.1424 16.5558V1.3958C90.1424 1.16475 89.9568 1.00279 89.7483 1.00279ZM106.163 16.0709C103.706 15.5625 102.129 12.8125 102.129 8.97631C102.129 5.13987 103.682 2.38984 106.14 1.88118C106.325 1.83512 106.441 1.65039 106.418 1.46539V1.41934C106.395 1.18804 106.232 1.04936 106.024 1.09567C103.172 1.69644 101.341 4.72384 101.341 8.97631C101.341 13.2052 103.172 16.2557 106.024 16.8337C106.232 16.8797 106.418 16.7413 106.441 16.51V16.4639C106.464 16.2559 106.348 16.1173 106.163 16.0709H106.163ZM107.693 1.41959V1.48893C107.67 1.67392 107.786 1.83563 107.971 1.88169C110.429 2.39035 112.006 5.14038 112.006 8.97682C112.006 12.8128 110.429 15.5398 107.971 16.0715C107.786 16.0945 107.67 16.2562 107.693 16.4642V16.5335C107.716 16.7646 107.902 16.8802 108.11 16.8339C110.962 16.2562 112.771 13.2058 112.771 8.97657C112.771 4.72435 110.962 1.69695 108.11 1.09593C107.902 1.04987 107.716 1.18855 107.693 1.41959Z" fill="black" stroke="black" stroke-width="0.454827" stroke-miterlimit="2"/>
<path d="M46.7818 1.1712C46.6815 1.17382 46.5815 1.18236 46.4822 1.19679C46.3576 1.21733 46.2345 1.24579 46.1135 1.28199C46.0575 1.29939 45.9733 1.32856 45.927 1.34724C45.8807 1.36566 45.8118 1.39508 45.7745 1.41223C45.6367 1.47843 45.5037 1.55427 45.3766 1.63918C45.3203 1.67756 45.2203 1.75176 45.1543 1.80421C45.0882 1.85666 44.958 1.97564 44.8646 2.06826C44.7712 2.16089 44.6538 2.28652 44.6031 2.34716C44.5446 2.4184 44.4875 2.49082 44.4319 2.56439C44.3882 2.62272 44.3176 2.72225 44.2751 2.78571C44.2326 2.84891 44.1641 2.95637 44.1226 3.02469C44.0733 3.10638 44.0256 3.18904 43.9796 3.27262C43.9422 3.34068 43.8719 3.47808 43.823 3.57787C43.7744 3.67766 43.7048 3.82913 43.6682 3.91433C43.6319 3.99953 43.5753 4.13898 43.5423 4.22418C43.4434 4.4897 43.3534 4.75842 43.2724 5.0299C43.2478 5.1151 43.2058 5.27042 43.179 5.37532C43.1476 5.49873 43.118 5.62258 43.0902 5.74684C43.0682 5.84662 43.0324 6.02215 43.0104 6.13652C42.9847 6.27189 42.961 6.40759 42.939 6.5436C42.9216 6.65311 42.8955 6.83657 42.8806 6.95094C42.8629 7.09233 42.8467 7.23392 42.832 7.37567C42.8021 7.68214 42.7792 7.98926 42.7635 8.29679C42.7547 8.55929 42.7509 8.82194 42.7522 9.08459C42.7522 9.42234 42.7571 9.74396 42.7635 9.87266C42.7793 10.18 42.8021 10.487 42.832 10.7933C42.8443 10.9125 42.8643 11.0898 42.8765 11.1873C42.8888 11.2845 42.9131 11.456 42.9303 11.5678C42.9477 11.6798 42.9776 11.8569 42.9971 11.9618C43.0165 12.0664 43.0523 12.2458 43.0769 12.3602C43.1015 12.4746 43.147 12.6677 43.1782 12.7895C43.214 12.9288 43.2521 13.0675 43.2926 13.2056C43.3243 13.3128 43.3803 13.4885 43.4172 13.5963C43.4538 13.7042 43.5121 13.8657 43.5467 13.955C43.5812 14.0445 43.64 14.1891 43.6774 14.2769C43.7971 14.5458 43.9296 14.8087 44.0745 15.0649C44.1825 15.2478 44.2997 15.4252 44.4256 15.5964C44.4729 15.6596 44.553 15.7611 44.6039 15.8218C44.6543 15.8827 44.772 16.0083 44.8651 16.1009C44.9583 16.1938 45.0885 16.3125 45.1543 16.365C45.2203 16.4177 45.33 16.4975 45.3986 16.5428C45.4669 16.5881 45.5667 16.649 45.6207 16.6784C45.6744 16.7076 45.7683 16.7534 45.8292 16.7802C45.8904 16.8071 45.9764 16.8417 46.0204 16.857C46.1553 16.9022 46.2933 16.9377 46.4333 16.9632C46.5545 16.9837 46.6769 16.9956 46.7997 16.999H46.8506V15.7269L46.7695 15.7207C46.7183 15.7165 46.6672 15.7099 46.6165 15.701C46.5607 15.6891 46.5055 15.6742 46.4512 15.6562C46.3891 15.6347 46.3283 15.6096 46.2691 15.581C46.2051 15.5479 46.1428 15.5116 46.0825 15.4723C46.0288 15.4367 45.9408 15.3699 45.8871 15.3239C45.8236 15.2687 45.7624 15.2109 45.7039 15.1506C45.6512 15.095 45.6004 15.0377 45.5516 14.9787C45.5042 14.9196 45.4583 14.8593 45.414 14.7978C45.3751 14.7436 45.3134 14.652 45.2768 14.5944C45.2283 14.5165 45.1815 14.4375 45.1366 14.3575C45.0959 14.2848 45.0314 14.1604 44.9931 14.0809C44.9547 14.0016 44.893 13.8659 44.8562 13.7797C44.8196 13.6935 44.7641 13.5551 44.7328 13.4719C44.6929 13.3631 44.6547 13.2537 44.6182 13.1436C44.586 13.0464 44.5376 12.8908 44.511 12.7982C44.4748 12.6706 44.4406 12.5424 44.4084 12.4137C44.3718 12.2638 44.3378 12.1133 44.3066 11.9623C44.2763 11.8135 44.2484 11.6642 44.2229 11.5145C44.1803 11.2574 44.1445 10.9991 44.1157 10.74C44.1044 10.6354 44.094 10.5307 44.0845 10.4258C44.0746 10.3064 44.0657 10.1869 44.0579 10.0674C44.0484 9.91396 44.0409 9.76043 44.0354 9.60682C44.0298 9.43134 44.0269 9.2558 44.0264 9.08025C44.0264 8.92929 44.0305 8.69619 44.0351 8.56237C44.04 8.4283 44.0482 8.24894 44.0533 8.16374C44.0685 7.91835 44.0892 7.67335 44.1154 7.42889C44.1443 7.16981 44.1801 6.91155 44.2229 6.65439C44.2424 6.53746 44.28 6.33609 44.3066 6.20688C44.3329 6.07767 44.3787 5.87426 44.4084 5.75528C44.4381 5.6363 44.4818 5.47127 44.5059 5.38837C44.5875 5.10212 44.683 4.81999 44.7919 4.54299C44.8657 4.35985 44.9468 4.17974 45.035 4.00312C45.0708 3.93224 45.131 3.82094 45.1683 3.75493C45.2059 3.68942 45.2737 3.57864 45.3195 3.5093C45.3653 3.4397 45.4337 3.34222 45.4713 3.29258C45.5089 3.24294 45.5744 3.16234 45.6166 3.11347C45.6591 3.06486 45.7346 2.98554 45.7845 2.93795C45.8343 2.8901 45.9057 2.8269 45.9431 2.79722C45.9807 2.76729 46.0493 2.71791 46.0958 2.68771C46.1422 2.65752 46.2212 2.61198 46.2714 2.5869C46.3215 2.56183 46.4039 2.52805 46.4543 2.51142C46.5078 2.4941 46.5622 2.47958 46.6173 2.46793C46.6564 2.46051 46.725 2.45181 46.7695 2.44848L46.8504 2.44208V1.16992L46.7818 1.1712ZM53.9893 1.16992H53.9381V2.44208L54.0202 2.44822C54.0655 2.45155 54.1413 2.4623 54.1886 2.47176C54.2359 2.48123 54.3099 2.50144 54.3529 2.51654C54.3958 2.53164 54.4706 2.56336 54.5187 2.58741C54.567 2.61121 54.641 2.65317 54.6832 2.68055C54.7251 2.70793 54.7935 2.75654 54.8349 2.78878C54.8764 2.82102 54.9518 2.88703 55.0028 2.9359C55.0534 2.98452 55.1309 3.06639 55.175 3.1168C55.219 3.16772 55.2878 3.25318 55.3282 3.30716C55.3684 3.36115 55.4354 3.4571 55.4769 3.5203C55.5183 3.58375 55.5833 3.68917 55.6209 3.75493C55.7888 4.05642 55.9337 4.37015 56.0544 4.69344C56.0861 4.77864 56.1388 4.92807 56.1708 5.0253C56.203 5.12278 56.2516 5.28014 56.279 5.37506C56.3064 5.46999 56.3542 5.6514 56.3855 5.7778C56.4167 5.90445 56.4604 6.09763 56.4827 6.20739C56.5049 6.31665 56.5372 6.48629 56.5541 6.58351C56.571 6.68074 56.5965 6.84219 56.6111 6.94198C56.6255 7.04177 56.6475 7.2091 56.6597 7.31401C56.6723 7.41866 56.6904 7.59188 56.7002 7.69909C56.7099 7.80604 56.7237 7.98949 56.7311 8.10617C56.7385 8.2231 56.7488 8.4283 56.7536 8.56212C56.7582 8.69594 56.7623 8.93108 56.7623 9.08459C56.7623 9.23786 56.7582 9.473 56.7536 9.60682C56.7478 9.75887 56.7404 9.91086 56.7314 10.0628C56.7237 10.1797 56.7099 10.3629 56.6999 10.4698C56.6879 10.5984 56.6745 10.7269 56.6597 10.8552C56.6448 10.9793 56.6286 11.1032 56.6111 11.227C56.5965 11.3267 56.571 11.4884 56.5538 11.5864C56.5316 11.7121 56.5078 11.8375 56.4824 11.9626C56.4535 12.1009 56.4223 12.2387 56.389 12.376C56.3571 12.5064 56.3232 12.6362 56.2872 12.7655C56.2156 13.0116 56.1354 13.255 56.0467 13.4955C56.0157 13.5773 55.964 13.7065 55.9313 13.7833C55.8988 13.8601 55.833 14.0023 55.7852 14.0998C55.7373 14.197 55.6718 14.3237 55.6393 14.3813C55.6071 14.4386 55.5524 14.5302 55.5181 14.5847C55.4349 14.7167 55.3444 14.8439 55.2471 14.9659C55.2057 15.0181 55.1269 15.1066 55.0721 15.1634C55.0176 15.22 54.935 15.298 54.8884 15.3369C54.8421 15.3755 54.7602 15.4364 54.7065 15.472C54.6527 15.5078 54.5688 15.5564 54.5199 15.581C54.4711 15.6051 54.3958 15.6373 54.3529 15.6527C54.299 15.6706 54.2441 15.6855 54.1886 15.6972C54.1329 15.7079 54.0767 15.7158 54.0202 15.7207L53.9381 15.7269V16.999H53.9865C54.189 16.9933 54.3903 16.9646 54.5865 16.9136C54.633 16.9008 54.71 16.8772 54.7576 16.8606C54.8055 16.844 54.8915 16.8104 54.9488 16.7859C55.0061 16.7616 55.1008 16.7155 55.1593 16.6835C55.2179 16.6518 55.3116 16.5958 55.3671 16.5594C55.4229 16.5231 55.5068 16.464 55.5536 16.4287C55.6007 16.3929 55.6828 16.3263 55.7366 16.28C55.7903 16.2337 55.8924 16.1367 55.9633 16.0638C56.0342 15.9914 56.1337 15.8824 56.1846 15.8218C56.2355 15.7611 56.3159 15.6596 56.3632 15.5961C56.489 15.4249 56.606 15.2476 56.714 15.0647C56.8368 14.8518 56.9494 14.6332 57.0515 14.4097C57.0888 14.3268 57.1454 14.1958 57.1771 14.1185C57.2088 14.0412 57.26 13.9097 57.2907 13.8263C57.3214 13.7431 57.3733 13.5932 57.4061 13.4937C57.4388 13.3936 57.4869 13.2383 57.513 13.1482C57.5391 13.0579 57.5806 12.9067 57.6052 12.8115C57.6653 12.577 57.7186 12.3409 57.7651 12.1033C57.7797 12.0278 57.8019 11.9083 57.8142 11.8377C57.8267 11.7671 57.8487 11.6317 57.8636 11.5368C57.8782 11.4419 57.902 11.2687 57.9165 11.1517C57.9309 11.0348 57.9529 10.8337 57.9652 10.7045C57.9774 10.5755 57.9936 10.3823 58.001 10.2751C58.0084 10.1682 58.0191 9.98498 58.0253 9.86805C58.0319 9.74166 58.0365 9.42387 58.0365 9.08459C58.0365 8.74506 58.0319 8.42702 58.0253 8.30088C58.0191 8.18421 58.0081 8.00101 58.001 7.8938C57.9906 7.75056 57.9786 7.60744 57.9652 7.46446C57.9506 7.3152 57.9344 7.1661 57.9165 7.01721C57.8989 6.87829 57.8795 6.7396 57.8585 6.60117C57.8378 6.46956 57.8155 6.3382 57.7917 6.20714C57.7666 6.07413 57.74 5.94141 57.7119 5.80901C57.6818 5.67118 57.6496 5.53385 57.6151 5.39707C57.5865 5.28525 57.5407 5.11562 57.5133 5.02095C57.4338 4.7506 57.3441 4.48337 57.2444 4.21983C57.2021 4.11149 57.1583 4.00376 57.1129 3.89668C57.0514 3.75771 56.9864 3.62035 56.9179 3.48473C56.8533 3.35618 56.7854 3.22932 56.7142 3.10426C56.6062 2.92134 56.4891 2.74397 56.3632 2.57283C56.3055 2.4962 56.2459 2.42095 56.1846 2.34716C56.1134 2.26419 56.0395 2.18347 55.9633 2.10511C55.8903 2.0305 55.8146 1.95847 55.7366 1.88916C55.6828 1.84285 55.6007 1.77607 55.5536 1.7405C55.4927 1.69512 55.4305 1.65152 55.3671 1.60975C55.3116 1.57317 55.2179 1.51739 55.1593 1.4854C55.0905 1.44855 55.0203 1.4144 54.9488 1.38306C54.8915 1.35849 54.8037 1.32421 54.7533 1.30681C54.6904 1.28541 54.6269 1.2662 54.5627 1.24924C54.4951 1.2324 54.427 1.21798 54.3585 1.206C54.2883 1.19469 54.2177 1.18572 54.1469 1.17913C54.0883 1.17402 54.0172 1.17018 53.9893 1.16992Z" fill="#FD971F"/>
</svg>
