<?xml version="1.0" encoding="utf-8"?>
<!-- Generator: Adobe Illustrator 27.4.1, SVG Export Plug-In . SVG Version: 6.00 Build 0)  -->
<svg version="1.1" id="Layer_1" xmlns="http://www.w3.org/2000/svg" xmlns:xlink="http://www.w3.org/1999/xlink" x="0px" y="0px"
	 viewBox="0 0 115.1 23.1" style="enable-background:new 0 0 115.1 23.1;" xml:space="preserve">
<style type="text/css">
	.st0{clip-path:url(#SVGID_00000116947560865012666120000012725149493165980579_);}
	.st1{fill:#7A8AA0;}
	.st2{fill-rule:evenodd;clip-rule:evenodd;fill:#7A8AA0;}
</style>
<g>
	<defs>
		<rect id="SVGID_1_" x="-1.9" y="-0.9" width="117" height="25"/>
	</defs>
	<clipPath id="SVGID_00000047782747521190152180000012861943437942900140_">
		<use xlink:href="#SVGID_1_"  style="overflow:visible;"/>
	</clipPath>
	<g style="clip-path:url(#SVGID_00000047782747521190152180000012861943437942900140_);">
		<path class="st1" d="M41,21c-2.2-0.1-4.4-0.5-6.1-2c-0.8-0.7-1.3-1.6-2-2.5c-0.3-0.4-0.4-0.9,0.1-1.4c0.4-0.5,1-0.6,1.6-0.3
			c0.4,0.2,0.9,0.5,1.2,0.8c1.6,2.3,3.9,2.8,6.5,2.5c0.5-0.1,1-0.2,1.4-0.3c1-0.4,1.6-1.2,1.7-2.2c0.1-0.8-0.3-1.5-1.1-1.8
			c-1.4-0.5-2.9-0.7-4.3-1.2c-1.4-0.4-2.8-0.8-4.2-1.5c-1.3-0.6-2.1-1.6-2.4-3c-0.4-1.8,0.4-3.7,2.1-4.7c2.1-1.3,4.4-1.4,6.8-1.1
			c2.1,0.3,3.8,1.1,4.8,3c0.2,0.3,0.3,0.7,0.4,1.1c0.2,0.6,0.1,1.1-0.4,1.4c-0.5,0.4-1.1,0.5-1.7,0.1c-0.4-0.3-0.7-0.6-0.9-1
			c-0.7-1.2-1.7-1.7-3.1-1.9c-1.2-0.1-2.4-0.1-3.6,0.3c-1,0.3-1.4,1-1.5,2C36.4,8,36.9,8.7,37.6,9c1.1,0.5,2.3,0.8,3.5,1.2
			c1.3,0.4,2.7,0.6,4.1,1.1c3.2,1.2,4.3,4.3,2.5,7.1c-1,1.5-2.5,2.1-4.2,2.4C42.7,20.9,41.8,21,41,21z"/>
		<path class="st1" d="M73.3,10.9c0.1-0.6,0.1-1.2,0.1-1.8c0.1-0.9,0.6-1.4,1.4-1.5c0.8,0,1.4,0.5,1.4,1.4c0.1,1.3,0.1,2.6,0.1,3.9
			c0,2,0,4.1-0.1,6.1c-0.1,1.3-0.9,2-2.2,1.7c-0.5-0.1-0.6-0.5-0.6-0.8c-0.1-1-0.2-2-0.2-3.1c-0.1,0.2-0.2,0.4-0.3,0.5
			c-0.9,2.8-3.4,4-6.1,3.6c-4-0.5-6.4-4.2-5.5-8.3c0.9-3.8,4.7-6.1,8.4-5C71.5,8,72.6,9.3,73.3,10.9z M64.2,14
			c0,2.8,1.8,4.6,4.5,4.6c2.9,0,4.7-1.6,4.6-4.5c-0.1-2.4-1.5-4.4-4.8-4.3C65.7,9.8,64.2,11.3,64.2,14z"/>
		<path class="st1" d="M104.5,11c0.2-0.3,0.3-0.6,0.5-0.9c1.9-3.3,7-3.7,9.3-0.8c0.5,0.6,0.9,1.5,0.9,2.3c0.1,2.5,0.1,4.9,0.1,7.4
			c0,1.1-0.6,1.6-1.4,1.6c-0.9,0-1.4-0.6-1.4-1.7c-0.1-2-0.1-4-0.1-5.9c-0.1-3-2.5-3.5-4.6-3.1c-1.4,0.3-2.4,1.2-3.2,2.3
			c-0.2,0.2-0.2,0.6-0.2,0.8c0,2,0,4,0,5.9c0,0.7-0.4,1.3-1,1.5c-0.6,0.2-1.2,0.1-1.6-0.5c-0.2-0.3-0.3-0.7-0.3-1.1
			c0-3.3-0.1-6.5,0-9.8c0-1,0.6-1.6,1.5-1.6c0.8,0.1,1.4,0.7,1.4,1.6c0,0.6,0,1.1,0,1.7C104.4,10.9,104.4,11,104.5,11z"/>
		<path class="st1" d="M53.5,7.6c0-0.6,0-1.2,0-1.7c0-1,0.6-1.7,1.4-1.7c0.7-0.1,1.4,0.6,1.5,1.5c0.1,0.4,0.1,0.9,0,1.3
			c-0.1,0.5,0.1,0.6,0.6,0.6s0.9,0,1.4,0.1c0.7,0.1,1.1,0.5,1.2,1.1c0.1,0.6-0.4,1.1-1,1.2c-0.5,0.1-1,0.1-1.4,0.1
			c-0.5-0.1-0.7,0.1-0.7,0.7c0.1,2.5,0.1,4.9,0.1,7.4c0,0.5,0,0.9-0.1,1.4c-0.1,0.6-0.7,1.2-1.3,1.2c-0.6,0.1-1.2-0.4-1.4-1
			c-0.1-0.4-0.2-0.7-0.2-1.1c0-2.6,0-5.2,0-7.8c0-0.2,0-0.5,0-0.8c-0.6,0-1.2,0-1.7,0c-0.7,0-1.4-0.6-1.4-1.2c0-0.6,0.6-1.2,1.4-1.2
			C52.3,7.6,52.8,7.6,53.5,7.6z"/>
		<path class="st1" d="M82.8,11.6c0,2.5,0,5,0,7.4c0,0.9-0.5,1.5-1.5,1.6c-0.7,0.1-1.2-0.5-1.3-1.4c-0.1-0.3-0.1-0.6-0.1-0.8
			c0-4.7,0-9.4,0-14.1c0-0.5,0.1-1.1,0.4-1.4c0.3-0.3,0.9-0.5,1.3-0.5c0.5,0,1,0.4,1.1,1c0.1,0.3,0.1,0.6,0.1,0.8
			C82.7,6.8,82.7,9.2,82.8,11.6z"/>
		<path class="st1" d="M83.8,13.3c0.3-0.5,0.4-1,0.7-1.3c1.4-1.4,2.8-2.6,4.2-4c0.6-0.6,1.3-0.6,1.8-0.1c0.6,0.6,0.5,1.3-0.1,1.9
			c-1.1,1.1-2.2,2.1-3.4,3.1c-0.4,0.4-0.3,0.6,0,0.9c1.4,1.5,2.9,3,4.3,4.5c0.4,0.4,0.6,0.9,0.4,1.4c-0.2,0.4-0.6,0.7-1,0.8
			c-0.3,0.1-0.8-0.1-1.1-0.3c-1.8-1.8-3.5-3.6-5.2-5.5C84.1,14.4,84,13.8,83.8,13.3z"/>
		<path class="st1" d="M94.9,14c0-1.6,0-3.2,0-4.8c0-0.7,0.3-1.1,0.9-1.4c0.5-0.3,1-0.2,1.4,0.2c0.3,0.3,0.5,0.6,0.6,0.9
			c0.1,0.4,0.1,0.9,0.1,1.4c0,2.6,0,5.3,0,7.9c0,0.4-0.1,0.9-0.1,1.3c-0.1,0.7-0.7,1.2-1.4,1.2c-0.6,0-1.2-0.4-1.3-1.2
			c-0.1-0.3-0.1-0.7-0.1-1.1C94.9,17,94.9,15.5,94.9,14z"/>
		<path class="st1" d="M96.3,2.1c1.1,0,1.8,0.5,1.8,1.4c0,0.8-0.7,1.4-1.8,1.4c-0.9,0-1.6-0.6-1.6-1.4C94.6,2.6,95.3,2.1,96.3,2.1z"
			/>
		<path class="st2" d="M8,0C3.6,0,0,3.6,0,8v7.1c0,4.4,3.6,8,8,8h7.4c4.4,0,8-3.6,8-8V8c0-4.4-3.6-8-8-8H8z M12.9,5.1
			c-0.4,0-0.8,0-1.3,0C10.7,5,9.9,5,9,5.1c-1.7,0.2-3,1.8-3,3.6c0,1.8,1.2,3.3,3,3.6c0.1,0,0.1,0,0.2,0l0,0c0.1,0,0.3,0.1,0.4,0.1
			c0.1,0,0.1,0,0.2,0c0.4,0,0.9,0,0.9,0.7c0,0.5-0.4,0.7-1.2,0.7c-2.5-0.1-4.6-2-4.9-4.3c-0.3-3.1,1.6-5.1,4-5.7
			c0.2-0.1,0.4-0.1,0.6-0.1c0.6,0,1.1,0,1.7,0l0,0l0,0l0,0h0c1.1,0,2.2,0,3.4,0C16.7,3.7,19,6,19,8.2c0,0.3-0.1,0.6-0.3,0.7
			c-0.2,0.1-0.6,0-0.8-0.1C16.7,8,15.4,7.7,14,7.6c-0.8,0-1.2-0.4-1.2-1.2C12.9,6,12.9,5.6,12.9,5.1z M14.8,17.9
			c-0.8,0.1-1.7,0.1-2.6,0.1c-0.4,0-0.9,0-1.3,0v-1.3c-0.1-0.8-0.4-1.1-1.2-1.1c-1.4-0.1-2.7-0.5-3.9-1.2C5.6,14,5.2,13.9,5,14
			c-0.2,0.1-0.3,0.5-0.3,0.8c0,0.2,0,0.5,0.1,0.8c0.7,2.3,2.5,3.7,4.9,3.7c1.4,0,2.9,0,4.3,0c2.2,0,4.1-1.4,4.8-3.5
			c0.6-2-0.1-4.2-1.8-5.5c-0.9-0.7-2-1-3.2-1c-0.5,0-0.9,0.1-0.9,0.7c0,0.6,0.4,0.7,0.9,0.7c0.2,0,0.4,0,0.5,0
			c1.8,0.2,3.2,1.6,3.3,3.3C17.7,16,16.6,17.6,14.8,17.9z"/>
	</g>
</g>
</svg>
