<svg width="537" height="590" viewBox="0 0 537 590" fill="none" xmlns="http://www.w3.org/2000/svg">
<rect width="37.0265" height="37.0265" transform="matrix(-0.866025 -0.5 -2.20305e-08 1 471.193 223.375)" fill="#4C1CB2"/>
<rect width="37.0265" height="37.0265" transform="matrix(-0.866025 0.5 2.20305e-08 1 503.16 204.86)" fill="#8652F4"/>
<rect width="37.0265" height="37.0265" transform="matrix(-0.866025 0.5 0.866025 0.5 471.094 186.449)" fill="#9493FF"/>
<path d="M451.227 238.145L411.446 260.602" stroke="url(#paint0_linear_8156_13854)" stroke-width="1.16306" stroke-dasharray="2.33 2.33"/>
<path d="M24.8359 303.603L64.6167 326.06" stroke="url(#paint1_linear_8156_13854)" stroke-width="1.16306" stroke-dasharray="2.33 2.33"/>
<rect width="28.8555" height="28.8555" transform="matrix(0.866025 -0.5 2.20305e-08 1 64.6162 323.202)" fill="#4C1CB2"/>
<rect width="28.8555" height="28.8555" transform="matrix(0.866025 0.5 -2.20305e-08 1 39.7031 308.774)" fill="#8652F4"/>
<rect width="28.8555" height="28.8555" transform="matrix(0.866025 0.5 -0.866025 0.5 64.6934 294.425)" fill="#9493FF"/>
<path d="M77.1104 333.072L116.891 355.529" stroke="url(#paint2_linear_8156_13854)" stroke-width="1.16306" stroke-dasharray="2.33 2.33"/>
<rect width="309.963" height="309.963" rx="43.6757" transform="matrix(0.866025 0.5 -0.866025 0.5 268.436 279.176)" fill="#362B46"/>
<rect width="250.686" height="250.686" rx="43.6757" transform="matrix(0.866025 0.5 -0.866025 0.5 270.409 308.814)" fill="url(#paint3_linear_8156_13854)"/>
<path d="M112.264 339.567L268.255 428.675L268.255 525.249L111.586 434.796L112.264 339.567Z" fill="#F6EFFE" stroke="#4C1CB2" stroke-width="1.01613" stroke-linejoin="round"/>
<path d="M424.188 339.5L268.258 428.675L268.258 525.249L424.188 437.249L424.188 339.5Z" fill="#FDEFFE" stroke="#4C1CB2" stroke-width="1.01613" stroke-linejoin="round"/>
<path d="M268.256 248.995L424.012 339.165L268.256 428.675L112.648 338.835L268.256 248.995Z" fill="#E1D0E6" stroke="#4C1CB2" stroke-width="1.01613" stroke-linejoin="round"/>
<path d="M140.401 380.387L237.783 436.121L237.783 485.697L139.978 429.229L140.401 380.387Z" fill="#270959"/>
<path d="M140.401 380.387L237.783 436.121L237.783 485.697L139.978 429.229L140.401 380.387Z" fill="url(#paint4_radial_8156_13854)"/>
<path d="M140.401 380.387L237.783 436.121L237.783 485.697L139.978 429.229L140.401 380.387Z" stroke="#4C1CB2" stroke-width="1.01613" stroke-linejoin="round"/>
<path d="M237.625 482.099L142.763 427.935L140.401 429.217L237.625 485.358L237.625 482.099Z" fill="#2A1B75"/>
<path d="M142.783 428.012V382.063L140.891 381.135L140.413 429.412L142.783 428.012Z" fill="#403090"/>
<path d="M394.702 381.868L297.319 437.603L297.319 487.179L395.125 430.711L394.702 381.868Z" fill="white"/>
<path d="M394.702 381.868L297.319 437.603L297.319 487.179L395.125 430.711L394.702 381.868Z" fill="url(#paint5_radial_8156_13854)"/>
<path d="M394.702 381.868L297.319 437.603L297.319 487.179L395.125 430.711L394.702 381.868Z" stroke="#4C1CB2" stroke-width="1.01613" stroke-linejoin="round"/>
<path d="M297.477 483.581L392.34 429.417L394.701 430.699L297.478 486.84L297.477 483.581Z" fill="#351B76"/>
<path d="M392.32 429.494V383.545L394.213 382.616L394.69 430.894L392.32 429.494Z" fill="#4B2F90"/>
<path d="M112.264 216.325L268.255 305.434L268.255 402.007L111.586 311.554L112.264 216.325Z" fill="#F6EFFE" stroke="#4C1CB2" stroke-width="1.01613" stroke-linejoin="round"/>
<path d="M140.402 256.418L237.784 312.153L237.784 361.729L139.979 305.261L140.402 256.418Z" fill="white"/>
<path d="M140.402 256.418L237.784 312.153L237.784 361.729L139.979 305.261L140.402 256.418Z" fill="url(#paint6_radial_8156_13854)"/>
<path d="M140.402 256.418L237.784 312.153L237.784 361.729L139.979 305.261L140.402 256.418Z" stroke="#4C1CB2" stroke-width="1.01613" stroke-linejoin="round"/>
<path d="M175.691 305.784L175.691 296.276L173.818 295.77L173.818 293.886L176.568 294.077L177.807 294.793L177.807 307.005L175.691 305.784ZM184.171 310.889C183.214 310.336 182.388 309.592 181.693 308.656C180.998 307.72 180.465 306.673 180.092 305.516C179.729 304.352 179.548 303.149 179.548 301.904C179.548 300.66 179.729 299.671 180.092 298.938C180.465 298.2 180.993 297.761 181.678 297.621C182.373 297.488 183.204 297.7 184.171 298.258C185.138 298.816 185.964 299.561 186.649 300.491C187.344 301.427 187.873 302.477 188.235 303.64C188.608 304.797 188.794 305.998 188.794 307.243C188.794 308.487 188.608 309.479 188.235 310.217C187.873 310.95 187.344 311.383 186.649 311.517C185.964 311.656 185.138 311.447 184.171 310.889ZM184.171 308.778C184.675 309.069 185.118 309.156 185.501 309.04C185.884 308.912 186.181 308.595 186.392 308.089C186.614 307.589 186.725 306.908 186.725 306.048C186.725 305.175 186.614 304.367 186.392 303.623C186.181 302.872 185.884 302.218 185.501 301.66C185.118 301.102 184.675 300.677 184.171 300.386C183.668 300.096 183.224 300.008 182.842 300.125C182.459 300.241 182.157 300.549 181.935 301.049C181.724 301.544 181.618 302.227 181.618 303.099C181.618 303.96 181.724 304.765 181.935 305.516C182.157 306.272 182.459 306.934 182.842 307.504C183.224 308.063 183.668 308.487 184.171 308.778ZM194.809 317.031C193.852 316.478 193.026 315.734 192.331 314.798C191.636 313.861 191.103 312.815 190.73 311.657C190.367 310.494 190.186 309.291 190.186 308.046C190.186 306.802 190.367 305.813 190.73 305.08C191.103 304.342 191.631 303.903 192.316 303.763C193.011 303.629 193.842 303.842 194.809 304.4C195.776 304.958 196.602 305.703 197.287 306.633C197.982 307.569 198.511 308.619 198.873 309.782C199.246 310.939 199.432 312.14 199.432 313.385C199.432 314.629 199.246 315.621 198.873 316.359C198.511 317.092 197.982 317.525 197.287 317.659C196.602 317.798 195.776 317.589 194.809 317.031ZM194.809 314.92C195.313 315.211 195.756 315.298 196.139 315.181C196.522 315.054 196.819 314.737 197.03 314.231C197.252 313.731 197.363 313.05 197.363 312.189C197.363 311.317 197.252 310.509 197.03 309.765C196.819 309.014 196.522 308.36 196.139 307.802C195.756 307.244 195.313 306.819 194.809 306.528C194.306 306.238 193.862 306.15 193.48 306.267C193.097 306.383 192.795 306.691 192.573 307.191C192.362 307.686 192.256 308.369 192.256 309.241C192.256 310.102 192.362 310.907 192.573 311.657C192.795 312.413 193.097 313.076 193.48 313.646C193.862 314.204 194.306 314.629 194.809 314.92ZM201.126 324.307L201.126 311.676L202.939 312.722L203.166 314.075C203.327 313.912 203.518 313.79 203.74 313.708C203.962 313.615 204.223 313.592 204.526 313.638C204.838 313.679 205.2 313.819 205.613 314.057C206.329 314.47 206.958 315.037 207.502 315.758C208.046 316.479 208.474 317.279 208.786 318.157C209.109 319.029 209.27 319.907 209.27 320.791C209.27 321.675 209.109 322.373 208.786 322.885C208.464 323.385 208.031 323.676 207.487 323.757C206.943 323.838 206.324 323.679 205.629 323.277C205.064 322.952 204.576 322.553 204.163 322.082C203.76 321.605 203.428 321.082 203.166 320.512L203.166 325.484L201.126 324.307ZM205.145 320.939C205.548 321.172 205.901 321.271 206.203 321.236C206.515 321.207 206.757 321.05 206.928 320.765C207.099 320.48 207.185 320.088 207.185 319.587C207.185 319.087 207.099 318.596 206.928 318.113C206.757 317.619 206.515 317.177 206.203 316.787C205.901 316.392 205.548 316.078 205.145 315.845C204.752 315.618 204.4 315.525 204.087 315.566C203.785 315.601 203.544 315.758 203.362 316.037C203.191 316.322 203.105 316.715 203.105 317.215C203.105 317.715 203.191 318.212 203.362 318.706C203.544 319.195 203.785 319.631 204.087 320.015C204.4 320.404 204.752 320.713 205.145 320.939ZM214.161 327.994C213.627 327.686 213.159 327.322 212.756 326.904C212.363 326.479 212.056 325.982 211.834 325.412C211.613 324.831 211.502 324.15 211.502 323.371L211.502 319.638L210.203 318.887L210.203 316.916L211.502 317.666L211.729 315.407L213.542 316.454L213.542 318.844L215.551 320.004L215.551 321.975L213.542 320.815L213.542 324.583C213.542 324.979 213.617 325.296 213.768 325.534C213.919 325.773 214.176 325.997 214.539 326.206L215.536 326.782L215.536 328.788L214.161 327.994ZM220.38 331.794C219.685 331.393 219.081 330.916 218.567 330.363C218.053 329.811 217.65 329.224 217.358 328.601C217.066 327.979 216.9 327.371 216.86 326.778L218.884 327.947C218.935 328.197 219.02 328.45 219.141 328.706C219.262 328.95 219.423 329.183 219.625 329.404C219.826 329.625 220.068 329.817 220.35 329.98C220.622 330.137 220.843 330.224 221.015 330.241C221.186 330.247 221.312 330.198 221.392 330.093C221.483 329.994 221.528 329.863 221.528 329.7C221.528 329.456 221.468 329.235 221.347 329.038C221.226 328.828 221.05 328.616 220.818 328.401C220.586 328.186 220.304 327.941 219.972 327.668C219.609 327.377 219.252 327.072 218.899 326.752C218.557 326.426 218.25 326.092 217.978 325.749C217.706 325.406 217.489 325.042 217.328 324.659C217.167 324.275 217.086 323.868 217.086 323.437C217.086 322.914 217.207 322.519 217.449 322.251C217.691 321.972 218.043 321.844 218.507 321.867C218.97 321.891 219.529 322.091 220.184 322.469C221.1 322.998 221.825 323.655 222.359 324.441C222.893 325.226 223.21 326.066 223.311 326.961L221.392 325.854C221.332 325.551 221.196 325.263 220.984 324.99C220.783 324.711 220.511 324.473 220.168 324.275C219.806 324.065 219.529 323.981 219.337 324.022C219.146 324.063 219.05 324.205 219.05 324.449C219.05 324.612 219.111 324.792 219.232 324.99C219.363 325.194 219.544 325.409 219.776 325.636C220.007 325.851 220.289 326.095 220.622 326.368C221.206 326.845 221.72 327.305 222.163 327.747C222.606 328.177 222.953 328.633 223.205 329.116C223.457 329.587 223.583 330.137 223.583 330.765C223.583 331.323 223.452 331.747 223.19 332.038C222.928 332.317 222.556 332.439 222.072 332.405C221.599 332.376 221.035 332.172 220.38 331.794Z" fill="white"/>
<path d="M158.317 281.648C158.438 281.718 158.551 281.805 158.657 281.91C158.763 282.015 158.861 282.145 158.952 282.302L164.93 292.658C165.112 292.972 165.202 293.272 165.202 293.56C165.202 293.848 165.112 294.044 164.93 294.148C164.749 294.253 164.538 294.235 164.296 294.096C164.055 293.957 163.843 293.73 163.662 293.416L159.223 285.728L159.223 297.443C159.223 297.74 159.136 297.934 158.962 298.025C158.789 298.117 158.574 298.088 158.317 297.94C158.061 297.792 157.845 297.568 157.672 297.267C157.498 296.966 157.412 296.667 157.412 296.371L157.412 284.682L152.973 287.245C152.792 287.349 152.58 287.332 152.339 287.192C152.097 287.053 151.886 286.826 151.704 286.512C151.523 286.199 151.433 285.898 151.433 285.611C151.433 285.323 151.523 285.126 151.704 285.022L157.683 281.57C157.774 281.518 157.872 281.5 157.978 281.518C158.083 281.535 158.197 281.579 158.317 281.648Z" fill="white"/>
<path d="M237.626 358.13L142.764 303.966L140.402 305.248L237.626 361.389L237.626 358.13Z" fill="#4C1CB2"/>
<path d="M142.784 304.043V258.095L140.892 257.166L140.414 305.443L142.784 304.043Z" fill="#4C1CB2"/>
<path d="M424.188 216.258L268.258 305.433L268.258 402.007L424.188 312.018L424.188 216.258Z" fill="#FDF0FE" stroke="#4C1CB2" stroke-width="1.01613" stroke-linejoin="round"/>
<rect width="179.681" height="179.681" transform="matrix(0.866025 0.5 -0.866025 0.5 268.256 125.753)" fill="url(#paint7_linear_8156_13854)" stroke="#4C1CB2" stroke-width="1.01613" stroke-linejoin="round"/>
<path d="M394.702 257.9L297.319 313.635L297.319 363.211L395.125 306.743L394.702 257.9Z" fill="white"/>
<path d="M394.702 257.9L297.319 313.635L297.319 363.211L395.125 306.743L394.702 257.9Z" fill="url(#paint8_radial_8156_13854)"/>
<path d="M394.702 257.9L297.319 313.635L297.319 363.211L395.125 306.743L394.702 257.9Z" stroke="#4C1CB2" stroke-width="1.01613" stroke-linejoin="round"/>
<path d="M303.646 318.377L340.722 297.407" stroke="white" stroke-opacity="0.5" stroke-width="3.0484" stroke-linecap="round"/>
<path d="M346.091 294.425L357.506 288.235" stroke="white" stroke-opacity="0.5" stroke-width="3.0484" stroke-linecap="round"/>
<path d="M303.646 343.696L315.061 337.506" stroke="white" stroke-opacity="0.5" stroke-width="3.0484" stroke-linecap="round"/>
<path d="M363.01 284.925L374.425 278.734" stroke="white" stroke-opacity="0.5" stroke-width="3.0484" stroke-linecap="round"/>
<path d="M379.947 275.736L385.378 272.84" stroke="white" stroke-opacity="0.5" stroke-width="3.0484" stroke-linecap="round"/>
<path d="M321.138 334.16L326.568 331.264" stroke="white" stroke-opacity="0.5" stroke-width="3.0484" stroke-linecap="round"/>
<path d="M332.584 327.508L384.038 298.878" stroke="white" stroke-opacity="0.5" stroke-width="3.0484" stroke-linecap="round"/>
<path d="M303.646 326.06L313.775 320.403M389.414 278.159L374.59 286.438L368.35 289.923M361.777 293.594L325.663 313.764" stroke="white" stroke-opacity="0.5" stroke-width="3.0484" stroke-linecap="round"/>
<path d="M303.646 334.14L321.385 324.318M389.414 286.238L374.59 294.518L368.35 298.003M325.663 321.843L343.72 311.758L352.748 306.716L361.077 302.065" stroke="white" stroke-opacity="0.5" stroke-width="3.0484" stroke-linecap="round"/>
<path d="M297.477 359.613L392.34 305.449L394.701 306.731L297.478 362.872L297.477 359.613Z" fill="#030303"/>
<path d="M392.32 305.526V259.577L394.213 258.648L394.69 306.926L392.32 305.526Z" fill="#030303"/>
<path d="M239.531 43.5375C239.477 34.6735 233.242 31.08 225.538 35.4729L131.057 89.3497C123.247 93.8032 116.891 104.768 116.891 113.787L116.891 169.421C116.891 178.401 123.194 182.04 130.971 177.551L225.786 122.809C233.601 118.297 239.921 107.299 239.866 98.3072L239.531 43.5375Z" stroke="#C09FFF" stroke-width="1.01613" stroke-linejoin="round"/>
<g clip-path="url(#clip0_8156_13854)">
<path d="M198.529 96.6225L198.529 111.667C198.529 112.664 198.186 113.819 197.575 114.877C196.964 115.935 196.135 116.81 195.272 117.308L169.214 132.353C168.35 132.852 167.522 132.934 166.911 132.581C166.3 132.228 165.957 131.47 165.957 130.472L165.957 115.428C165.525 115.677 165.111 115.718 164.805 115.542C164.5 115.366 164.328 114.986 164.328 114.488L164.328 108.846C164.328 107.849 164.671 106.694 165.282 105.636C165.893 104.578 166.721 103.703 167.585 103.204L172.748 100.224C172.564 99.7258 172.47 99.1439 172.471 98.503C172.471 97.0068 172.986 95.2746 173.902 93.6876C174.818 92.1006 176.061 90.7887 177.357 90.0406C178.986 89.1003 180.419 89.2131 181.314 90.0876L181.314 90.0688L182.243 90.9808L183.171 88.9969L183.171 89.0157C184.067 87.1069 185.5 85.3392 187.129 84.3989C188.424 83.6508 189.667 83.5277 190.583 84.0567C191.5 84.5857 192.014 85.7235 192.014 87.2197C192.015 87.8597 191.922 88.5497 191.737 89.2601L196.9 86.2795C197.764 85.7807 198.592 85.6986 199.203 86.0513C199.814 86.404 200.157 87.1625 200.157 88.16L200.157 93.8017C200.157 94.3004 199.986 94.8778 199.68 95.4068C199.375 95.9358 198.961 96.3731 198.529 96.6225ZM169.214 128.592L180.614 122.01L180.614 106.965L169.214 113.547L169.214 128.592ZM195.272 113.547L195.272 98.503L183.871 105.085L183.871 120.129L195.272 113.547ZM177.357 93.8017C176.925 94.051 176.511 94.4883 176.205 95.0173C175.9 95.5463 175.728 96.1237 175.728 96.6225C175.728 97.1212 175.9 97.5005 176.205 97.6768C176.511 97.8532 176.925 97.8121 177.357 97.5627C177.789 97.3134 178.203 96.8761 178.509 96.3471C178.814 95.8181 178.986 95.2407 178.986 94.7419C178.986 94.2432 178.814 93.8639 178.509 93.6876C178.203 93.5112 177.789 93.5523 177.357 93.8017ZM187.129 88.16C186.697 88.4094 186.282 88.8467 185.977 89.3757C185.672 89.9047 185.5 90.4821 185.5 90.9808C185.5 91.4796 185.672 91.8588 185.977 92.0352C186.282 92.2115 186.697 92.1705 187.129 91.9211C187.56 91.6717 187.975 91.2344 188.28 90.7054C188.586 90.1764 188.757 89.599 188.757 89.1003C188.757 88.6015 188.586 88.2223 188.28 88.0459C187.975 87.8696 187.56 87.9106 187.129 88.16ZM167.585 106.965L167.585 110.727L180.614 103.204L180.614 99.4433L167.585 106.965ZM183.871 97.5627L183.871 101.324L196.9 93.8017L196.9 90.0406L183.871 97.5627Z" fill="#C09FFF"/>
</g>
<circle cx="45.4212" cy="45.4212" r="45.4212" transform="matrix(0.866025 -0.5 0.866025 0.5 188.881 214.98)" stroke="url(#paint9_linear_8156_13854)" stroke-width="1.01613"/>
<circle cx="34.0144" cy="34.0144" r="34.0144" transform="matrix(0.866025 -0.5 0.866025 0.5 208.637 214.98)" fill="#F4EBFF"/>
<path d="M387.977 115.547C388.679 115.952 389.353 116.663 389.849 117.523C390.345 118.383 390.624 119.321 390.624 120.132L390.624 141.529C390.624 142.34 390.345 142.956 389.849 143.243C389.353 143.529 388.679 143.463 387.977 143.057L369.447 132.359C368.745 131.954 368.072 131.243 367.575 130.383C367.079 129.523 366.8 128.585 366.8 127.774L366.8 106.377C366.8 105.566 367.079 104.95 367.575 104.663C368.072 104.377 368.745 104.443 369.447 104.849L387.977 115.547ZM387.315 138.854L387.315 130.754C387.315 129.433 386.861 127.903 386.052 126.501C385.242 125.1 384.145 123.941 383.001 123.281C381.875 122.631 380.565 122.669 379.93 123.494L379.93 121.798L376.237 119.666L376.237 132.458L379.93 134.59L379.93 127.056C379.93 125.879 380.75 125.39 381.77 125.978C382.261 126.262 382.732 126.759 383.08 127.361C383.427 127.963 383.623 128.62 383.623 129.188L383.623 136.722L387.315 138.854ZM371.935 114.783C372.525 115.123 373.091 115.179 373.508 114.939C373.925 114.698 374.159 114.18 374.159 113.499C374.159 112.078 373.166 110.343 371.935 109.632C371.342 109.29 370.773 109.234 370.354 109.476C369.934 109.718 369.698 110.239 369.698 110.924C369.698 112.345 370.704 114.072 371.935 114.783ZM373.775 131.037L373.775 118.245L370.109 116.128L370.109 128.92L373.775 131.037Z" fill="#C09FFF"/>
<path d="M306.519 220.588C274.01 200.931 241.437 215.548 229.214 225.313L241.121 233.819L251.517 237.599L264.747 238.733H274.576L284.405 237.599L293.666 233.819L299.525 229.472L306.519 220.588Z" fill="url(#paint10_linear_8156_13854)"/>
<circle cx="34.0144" cy="34.0144" r="34.0144" transform="matrix(0.866025 -0.5 0.866025 0.5 208.637 214.98)" stroke="#43189F" stroke-width="4.06454"/>
<path d="M203.227 143.603L228.876 223.088L236.905 232.166L252.276 237.188L269.226 239.181L286.846 236.591L298.36 231.669L307.176 221.438L327.346 143.603L203.227 143.603Z" fill="url(#paint11_linear_8156_13854)"/>
<path d="M134.302 462.887L191.098 430.894" stroke="url(#paint12_linear_8156_13854)" stroke-width="1.16306" stroke-dasharray="2.33 2.33"/>
<rect width="28.8555" height="28.8555" transform="matrix(0.866025 -0.5 2.20305e-08 1 121.915 462.847)" fill="#4C1CB2"/>
<rect width="28.8555" height="28.8555" transform="matrix(0.866025 0.5 -2.20305e-08 1 97.002 448.419)" fill="#8652F4"/>
<rect width="28.8555" height="28.8555" transform="matrix(0.866025 0.5 -0.866025 0.5 121.992 434.07)" fill="#9493FF"/>
<path d="M52.1982 504.962L108.994 472.969" stroke="url(#paint13_linear_8156_13854)" stroke-width="1.16306" stroke-dasharray="2.33 2.33"/>
<path d="M386.716 454.02L329.92 422.027" stroke="url(#paint14_linear_8156_13854)" stroke-width="1.16306" stroke-dasharray="2.33 2.33"/>
<rect width="34.8307" height="34.8307" transform="matrix(-0.866025 -0.5 -2.20305e-08 1 368.816 450.527)" fill="#4C1CB2"/>
<rect width="34.8307" height="34.8307" transform="matrix(-0.866025 0.5 2.20305e-08 1 398.888 433.111)" fill="#8652F4"/>
<rect width="34.8307" height="34.8307" transform="matrix(-0.866025 0.5 0.866025 0.5 368.724 415.791)" fill="#9493FF"/>
<path d="M439.845 491.228L383.049 459.235" stroke="url(#paint15_linear_8156_13854)" stroke-width="1.16306" stroke-dasharray="2.33 2.33"/>
<path d="M388.314 84.9829C386.783 83.2748 385.126 81.7196 383.399 80.377C383.384 80.3677 383.369 80.3623 383.355 80.3612C383.341 80.36 383.328 80.3632 383.318 80.3704C383.111 80.6894 382.869 81.1214 382.708 81.467C380.877 80.0906 379.014 79.0152 377.183 78.2768C377.021 77.7318 376.78 77.034 376.561 76.469C376.55 76.4358 376.515 76.4026 376.48 76.3826C374.754 75.7313 373.108 75.3791 371.565 75.3126C371.553 75.3059 371.542 75.3126 371.53 75.3192C368.399 78.9215 367.536 83.6869 367.962 89.1434C367.962 89.17 367.973 89.2032 367.996 89.2298C370.068 92.1808 372.06 94.394 374.028 96.235C374.063 96.2682 374.098 96.2748 374.109 96.2549C374.57 95.7897 374.984 95.258 375.341 94.6532C375.364 94.6133 375.341 94.5468 375.295 94.5069C374.639 93.8357 374.017 93.1312 373.407 92.3801C373.361 92.327 373.361 92.2472 373.395 92.2273C373.522 92.1941 373.649 92.1475 373.775 92.1143C373.798 92.101 373.833 92.1209 373.856 92.1475C377.816 96.5208 382.087 98.9865 386.001 99.1593C386.024 99.1593 386.058 99.1793 386.081 99.2191C386.208 99.4119 386.334 99.5913 386.461 99.7841C386.507 99.8505 386.507 99.9303 386.45 99.9236C385.851 99.9901 385.218 99.9569 384.562 99.8705C384.516 99.8572 384.504 99.917 384.516 99.9635C384.884 100.987 385.298 101.997 385.747 102.988C385.782 103.021 385.816 103.054 385.851 103.061C387.831 103.499 389.822 103.586 391.895 103.027C391.918 103.027 391.929 103.007 391.929 102.981C392.436 97.2518 391.089 91.2503 388.36 85.036C388.349 85.0161 388.337 84.9962 388.314 84.9829ZM375.939 90.5724C374.754 89.8878 373.764 88.0534 373.764 86.4982C373.764 84.943 374.731 84.2385 375.939 84.9364C377.16 85.6409 378.127 87.4752 378.115 89.0105C378.115 90.5657 377.148 91.2702 375.939 90.5724ZM383.963 95.2048C382.777 94.5202 381.787 92.6859 381.787 91.1307C381.787 89.5754 382.754 88.8709 383.963 89.5688C385.183 90.2733 386.15 92.1077 386.139 93.6429C386.139 95.1982 385.183 95.9093 383.963 95.2048Z" fill="#C09FFF"/>
<path d="M307.682 34.6582C307.728 25.7895 313.955 22.1836 321.659 26.5659L408.15 75.7692C415.966 80.2158 422.333 91.1899 422.333 100.216L422.333 165.818C422.333 174.798 416.029 178.437 408.253 173.948L321.43 123.82C313.621 119.312 307.304 108.327 307.35 99.3372L307.682 34.6582Z" stroke="#C09FFF" stroke-width="1.01613" stroke-linejoin="round"/>
<path d="M307.682 34.6582C307.728 25.7895 313.955 22.1836 321.659 26.5659L408.15 75.7692C415.966 80.2158 422.333 91.1899 422.333 100.216L422.333 165.818C422.333 174.798 416.029 178.437 408.253 173.948L321.43 123.82C313.621 119.312 307.304 108.327 307.35 99.3372L307.682 34.6582Z" stroke="black" stroke-opacity="0.2" stroke-width="1.01613" stroke-linejoin="round"/>
<path d="M349.427 63.8062L352.338 65.487L345.978 70.2085L353.46 85.9496L347.601 82.5669L343.013 72.9907L337.762 76.8866L334.85 75.2049L341.652 70.1546L334.476 55.1741L340.482 58.6417L344.629 67.3678L349.427 63.8062ZM348.405 81.0193L350.018 81.9506L339.606 60.0424L337.875 59.0431L348.405 81.0193Z" fill="#C09FFF"/>
<path d="M332.675 25.6019L332.675 13.3897L339.565 17.3674L339.565 19.269L334.715 16.4689L334.715 19.7313L338.598 21.9731L338.598 23.8224L334.715 21.5806L334.715 26.7795L332.675 25.6019ZM347.462 34.3481C346.434 33.7549 345.528 32.964 344.742 31.9754C343.956 30.9868 343.342 29.8936 342.899 28.6956C342.456 27.486 342.234 26.259 342.234 25.0145C342.234 23.77 342.456 22.8047 342.899 22.1185C343.342 21.4207 343.956 21.031 344.742 20.9496C345.528 20.8682 346.434 21.1241 347.462 21.7172C348.499 22.3162 349.411 23.11 350.196 24.0986C350.982 25.0872 351.591 26.1834 352.024 27.3872C352.468 28.5851 352.689 29.8063 352.689 31.0508C352.689 32.2953 352.468 33.2664 352.024 33.9643C351.591 34.6563 350.982 35.043 350.196 35.1244C349.411 35.2058 348.499 34.9471 347.462 34.3481ZM347.462 32.2371C348.106 32.6093 348.66 32.7605 349.123 32.6907C349.597 32.6151 349.965 32.3389 350.226 31.862C350.488 31.3852 350.619 30.7164 350.619 29.8558C350.619 28.9835 350.488 28.1635 350.226 27.3959C349.965 26.6166 349.597 25.9217 349.123 25.3111C348.66 24.7063 348.106 24.2178 347.462 23.8456C346.827 23.4793 346.273 23.3281 345.8 23.392C345.326 23.456 344.959 23.7264 344.697 24.2033C344.435 24.6685 344.304 25.3373 344.304 26.2096C344.304 27.0702 344.435 27.8902 344.697 28.6694C344.959 29.4487 345.326 30.1494 345.8 30.7717C346.273 31.3823 346.827 31.8708 347.462 32.2371ZM355.94 39.0339L355.94 26.8217L357.98 27.9993L357.98 38.3797L362.618 41.0576L362.618 42.8894L355.94 39.0339ZM365.876 44.7702L365.876 32.5581L367.916 33.7357L367.916 44.116L372.554 46.794L372.554 48.6258L365.876 44.7702ZM379.762 52.9968C378.735 52.4036 377.828 51.6128 377.043 50.6242C376.257 49.6356 375.642 48.5423 375.199 47.3443C374.756 46.1347 374.535 44.9077 374.535 43.6632C374.535 42.4188 374.756 41.4534 375.199 40.7672C375.642 40.0694 376.257 39.6798 377.043 39.5983C377.828 39.5169 378.735 39.7728 379.762 40.366C380.8 40.9649 381.711 41.7587 382.497 42.7473C383.282 43.7359 383.892 44.8321 384.325 46.0359C384.768 47.2338 384.99 48.4551 384.99 49.6995C384.99 50.944 384.768 51.9152 384.325 52.613C383.892 53.305 383.282 53.6917 382.497 53.7731C381.711 53.8546 380.8 53.5958 379.762 52.9968ZM379.762 50.8858C380.407 51.258 380.961 51.4092 381.424 51.3394C381.897 51.2638 382.265 50.9876 382.527 50.5108C382.789 50.0339 382.92 49.3651 382.92 48.5045C382.92 47.6322 382.789 46.8122 382.527 46.0446C382.265 45.2654 381.897 44.5704 381.424 43.9598C380.961 43.355 380.407 42.8665 379.762 42.4944C379.128 42.128 378.574 41.9768 378.1 42.0408C377.627 42.1047 377.259 42.3752 376.997 42.852C376.735 43.3172 376.604 43.986 376.604 44.8583C376.604 45.719 376.735 46.5389 376.997 47.3182C377.259 48.0974 377.627 48.7982 378.1 49.4204C378.574 50.031 379.128 50.5195 379.762 50.8858ZM389.914 58.6485L387.134 44.8313L389.309 46.0874L391.153 56.6945L393.328 48.4077L395.579 49.7074L397.695 60.4716L399.553 52.0016L401.744 53.2664L398.888 63.8299L396.456 62.4255L394.431 52.3592L392.331 60.0441L389.914 58.6485Z" fill="#C09FFF"/>
<path d="M332.675 25.6019L332.242 25.3519L332.242 25.8519L332.675 26.1019L332.675 25.6019ZM332.675 13.3897L332.675 12.8897L332.242 12.6397L332.242 13.1397L332.675 13.3897ZM339.565 17.3674L339.998 17.6174L339.998 17.1174L339.565 16.8674L339.565 17.3674ZM339.565 19.269L339.565 19.769L339.998 20.019L339.998 19.519L339.565 19.269ZM334.715 16.4689L334.715 15.9689L334.282 15.7189L334.282 16.2189L334.715 16.4689ZM334.715 19.7313L334.282 19.4813L334.282 19.9813L334.715 20.2313L334.715 19.7313ZM338.598 21.9731L339.031 22.2231L339.031 21.7231L338.598 21.4731L338.598 21.9731ZM338.598 23.8224L338.598 24.3224L339.031 24.5724L339.031 24.0724L338.598 23.8224ZM334.715 21.5806L334.715 21.0806L334.282 20.8306L334.282 21.3306L334.715 21.5806ZM334.715 26.7795L334.715 27.2795L335.148 27.5295L335.148 27.0295L334.715 26.7795ZM333.108 25.8519L333.108 13.6397L332.242 13.1397L332.242 25.3519L333.108 25.8519ZM332.675 13.8897L339.565 17.8674L339.565 16.8674L332.675 12.8897L332.675 13.8897ZM339.132 17.1174L339.132 19.019L339.998 19.519L339.998 17.6174L339.132 17.1174ZM339.565 18.769L334.715 15.9689L334.715 16.9689L339.565 19.769L339.565 18.769ZM334.282 16.2189L334.282 19.4813L335.148 19.9813L335.148 16.7189L334.282 16.2189ZM334.715 20.2313L338.598 22.4731L338.598 21.4731L334.715 19.2313L334.715 20.2313ZM338.165 21.7231L338.165 23.5724L339.031 24.0724L339.031 22.2231L338.165 21.7231ZM338.598 23.3224L334.715 21.0806L334.715 22.0806L338.598 24.3224L338.598 23.3224ZM334.282 21.3306L334.282 26.5295L335.148 27.0295L335.148 21.8306L334.282 21.3306ZM334.715 26.2795L332.675 25.1019L332.675 26.1019L334.715 27.2795L334.715 26.2795ZM344.742 31.9754L344.522 32.2791L344.742 31.9754ZM342.899 28.6956L342.517 28.7117L342.518 28.7146L342.899 28.6956ZM342.899 22.1185L343.279 22.5768L343.28 22.5752L342.899 22.1185ZM350.196 24.0986L349.976 24.4023L350.196 24.0986ZM352.024 27.3872L351.641 27.398L351.644 27.4061L352.024 27.3872ZM352.024 33.9643L351.643 33.5076L351.642 33.509L352.024 33.9643ZM350.196 35.1244L349.976 34.5667L350.196 35.1244ZM349.123 32.6907L349.354 33.247L349.356 33.2467L349.123 32.6907ZM350.226 31.862L350.617 32.3042V32.3042L350.226 31.862ZM350.226 27.3959L349.836 27.3875L349.838 27.3916L350.226 27.3959ZM349.123 25.3111L348.893 25.6007L348.896 25.6053L349.123 25.3111ZM345.8 23.392L345.572 22.8352L345.8 23.392ZM344.697 24.2033L345.085 24.648L345.087 24.6454L344.697 24.2033ZM344.697 28.6694L344.307 28.6611L344.697 28.6694ZM345.8 30.7717L345.567 31.0587L345.572 31.0659L345.8 30.7717ZM347.462 33.8481C346.502 33.2938 345.673 32.5663 344.962 31.6717L344.522 32.2791C345.382 33.3618 346.367 34.216 347.462 34.8481L347.462 33.8481ZM344.962 31.6717C344.245 30.7698 343.686 29.7752 343.279 28.6766L342.518 28.7146C342.998 30.0119 343.668 31.2039 344.522 32.2791L344.962 31.6717ZM343.28 28.6795C342.876 27.5751 342.667 26.4389 342.667 25.2645L341.801 24.7645C341.801 26.079 342.035 27.397 342.517 28.7117L343.28 28.6795ZM342.667 25.2645C342.667 24.0899 342.876 23.2017 343.279 22.5768L342.518 21.6601C342.035 22.4077 341.801 23.4502 341.801 24.7645L342.667 25.2645ZM343.28 22.5752C343.687 21.9346 344.247 21.5814 344.962 21.5073L344.522 20.3919C343.666 20.4806 342.997 20.9067 342.517 21.6618L343.28 22.5752ZM344.962 21.5073C345.673 21.4336 346.502 21.663 347.462 22.2172L347.462 21.2172C346.367 20.5852 345.382 20.3028 344.522 20.3919L344.962 21.5073ZM347.462 22.2172C348.432 22.7778 349.266 23.5086 349.976 24.4023L350.416 23.7949C349.555 22.7114 348.566 21.8546 347.462 21.2172L347.462 22.2172ZM349.976 24.4023C350.691 25.3015 351.244 26.2958 351.641 27.398L352.408 27.3764C351.938 26.071 351.273 24.873 350.416 23.7949L349.976 24.4023ZM351.644 27.4061C352.047 28.497 352.256 29.6262 352.256 30.8008L353.122 31.3008C353.122 29.9864 352.888 28.6733 352.405 27.3682L351.644 27.4061ZM352.256 30.8008C352.256 31.9752 352.047 32.8704 351.643 33.5076L352.406 34.421C352.888 33.6624 353.122 32.6153 353.122 31.3008L352.256 30.8008ZM351.642 33.509C351.246 34.142 350.692 34.4926 349.976 34.5667L350.416 35.6821C351.272 35.5935 351.937 35.1706 352.407 34.4195L351.642 33.509ZM349.976 34.5667C349.266 34.6403 348.432 34.4086 347.462 33.8481L347.462 34.8481C348.566 35.4855 349.555 35.7713 350.416 35.6821L349.976 34.5667ZM347.462 32.7371C348.173 33.148 348.811 33.3289 349.354 33.247L348.893 32.1344C348.51 32.1921 348.039 32.0706 347.462 31.7371L347.462 32.7371ZM349.356 33.2467C349.903 33.1594 350.322 32.8397 350.617 32.3042L349.836 31.4199C349.607 31.8381 349.291 32.0708 348.891 32.1347L349.356 33.2467ZM350.617 32.3042C350.913 31.7653 351.052 31.0243 351.052 30.1058L350.186 29.6058C350.186 30.4086 350.064 31.005 349.836 31.4199L350.617 32.3042ZM351.052 30.1058C351.052 29.1772 350.913 28.273 350.615 27.4001L349.838 27.3916C350.064 28.054 350.186 28.7898 350.186 29.6058L351.052 30.1058ZM350.617 27.4042C350.322 26.5277 349.901 25.726 349.351 25.0169L348.896 25.6053C349.293 26.1174 349.607 26.7056 349.836 27.3875L350.617 27.4042ZM349.354 25.0215C348.811 24.3115 348.173 23.7565 347.462 23.3456L347.462 24.3456C348.039 24.6791 348.51 25.1011 348.893 25.6007L349.354 25.0215ZM347.462 23.3456C346.758 22.9396 346.123 22.7608 345.572 22.8352L346.027 23.9488C346.423 23.8954 346.896 24.019 347.462 24.3456L347.462 23.3456ZM345.572 22.8352C345.022 22.9095 344.601 23.2247 344.307 23.7611L345.087 24.6454C345.316 24.2281 345.63 24.0025 346.027 23.9488L345.572 22.8352ZM344.308 23.7586C344.01 24.2876 343.871 25.031 343.871 25.9596L344.737 26.4596C344.737 25.6436 344.859 25.0494 345.085 24.6479L344.308 23.7586ZM343.871 25.9596C343.871 26.8781 344.011 27.7805 344.307 28.6611L345.087 28.6778C344.859 27.9998 344.737 27.2624 344.737 26.4596L343.871 25.9596ZM344.307 28.6611C344.601 29.5361 345.02 30.3405 345.567 31.0586L346.033 30.4847C345.632 29.9583 345.317 29.3612 345.087 28.6778L344.307 28.6611ZM345.572 31.0659C346.123 31.7765 346.758 32.3311 347.462 32.7371L347.462 31.7371C346.896 31.4105 346.423 30.988 346.027 30.4774L345.572 31.0659ZM355.94 39.0339L355.507 38.7839L355.507 39.2839L355.94 39.5339L355.94 39.0339ZM355.94 26.8217L355.94 26.3217L355.507 26.0717L355.507 26.5717L355.94 26.8217ZM357.98 27.9993L358.413 28.2493L358.413 27.7493L357.98 27.4993L357.98 27.9993ZM357.98 38.3797L357.547 38.1297L357.547 38.6297L357.98 38.8797L357.98 38.3797ZM362.618 41.0576L363.051 41.3076L363.051 40.8076L362.618 40.5576L362.618 41.0576ZM362.618 42.8894L362.618 43.3894L363.051 43.6394L363.051 43.1394L362.618 42.8894ZM356.373 39.2839L356.373 27.0717L355.507 26.5717L355.507 38.7839L356.373 39.2839ZM355.94 27.3217L357.98 28.4993L357.98 27.4993L355.94 26.3217L355.94 27.3217ZM357.547 27.7493L357.547 38.1297L358.413 38.6297L358.413 28.2493L357.547 27.7493ZM357.98 38.8797L362.618 41.5576L362.618 40.5576L357.98 37.8797L357.98 38.8797ZM362.185 40.8076L362.185 42.6394L363.051 43.1394L363.051 41.3076L362.185 40.8076ZM362.618 42.3894L355.94 38.5339L355.94 39.5339L362.618 43.3894L362.618 42.3894ZM365.876 44.7702L365.443 44.5202L365.443 45.0202L365.876 45.2702L365.876 44.7702ZM365.876 32.5581L365.876 32.0581L365.443 31.8081L365.443 32.3081L365.876 32.5581ZM367.916 33.7357L368.349 33.9857L368.349 33.4857L367.916 33.2357L367.916 33.7357ZM367.916 44.116L367.483 43.866L367.483 44.366L367.916 44.616L367.916 44.116ZM372.554 46.794L372.987 47.044L372.987 46.544L372.554 46.294L372.554 46.794ZM372.554 48.6258L372.554 49.1258L372.987 49.3758L372.987 48.8758L372.554 48.6258ZM366.309 45.0202L366.309 32.8081L365.443 32.3081L365.443 44.5202L366.309 45.0202ZM365.876 33.0581L367.916 34.2357L367.916 33.2357L365.876 32.0581L365.876 33.0581ZM367.483 33.4857L367.483 43.866L368.349 44.366L368.349 33.9857L367.483 33.4857ZM367.916 44.616L372.554 47.294L372.554 46.294L367.916 43.616L367.916 44.616ZM372.121 46.544L372.121 48.3758L372.987 48.8758L372.987 47.044L372.121 46.544ZM372.554 48.1258L365.876 44.2702L365.876 45.2702L372.554 49.1258L372.554 48.1258ZM377.043 50.6242L376.823 50.9278L377.043 50.6242ZM375.199 47.3443L374.818 47.3604L374.819 47.3633L375.199 47.3443ZM375.199 40.7672L375.58 41.2256L375.581 41.2239L375.199 40.7672ZM382.497 42.7473L382.277 43.051L382.497 42.7473ZM384.325 46.0359L383.941 46.0467L383.944 46.0549L384.325 46.0359ZM384.325 52.613L383.943 52.1563L383.942 52.1577L384.325 52.613ZM382.497 53.7731L382.277 53.2155L382.497 53.7731ZM381.424 51.3394L381.655 51.8957L381.657 51.8954L381.424 51.3394ZM382.527 50.5108L382.917 50.9529L382.917 50.9529L382.527 50.5108ZM382.527 46.0446L382.137 46.0363L382.138 46.0404L382.527 46.0446ZM381.424 43.9598L381.193 44.2495L381.197 44.2541L381.424 43.9598ZM378.1 42.0408L377.873 41.484L378.1 42.0408ZM376.997 42.852L377.386 43.2967L377.387 43.2942L376.997 42.852ZM376.997 47.3182L376.607 47.3098L376.997 47.3182ZM378.1 49.4204L377.867 49.7074L377.873 49.7146L378.1 49.4204ZM379.762 52.4968C378.802 51.9425 377.973 51.215 377.263 50.3205L376.823 50.9278C377.683 52.0105 378.667 52.8647 379.762 53.4968L379.762 52.4968ZM377.263 50.3205C376.546 49.4185 375.986 48.424 375.58 47.3253L374.819 47.3633C375.299 48.6606 375.968 49.8526 376.823 50.9278L377.263 50.3205ZM375.581 47.3282C375.176 46.2238 374.968 45.0877 374.968 43.9132L374.102 43.4132C374.102 44.7278 374.336 46.0457 374.818 47.3604L375.581 47.3282ZM374.968 43.9132C374.968 42.7386 375.176 41.8504 375.58 41.2256L374.819 40.3089C374.336 41.0564 374.102 42.0989 374.102 43.4132L374.968 43.9132ZM375.581 41.2239C375.988 40.5833 376.547 40.2302 377.263 40.156L376.823 39.0407C375.967 39.1294 375.297 39.5554 374.818 40.3105L375.581 41.2239ZM377.263 40.156C377.973 40.0824 378.802 40.3117 379.762 40.866L379.762 39.866C378.667 39.2339 377.683 38.9515 376.823 39.0407L377.263 40.156ZM379.762 40.866C380.733 41.4265 381.567 42.1573 382.277 43.051L382.717 42.4436C381.856 41.3602 380.866 40.5034 379.762 39.866L379.762 40.866ZM382.277 43.051C382.991 43.9502 383.545 44.9445 383.941 46.0467L384.708 46.0251C384.239 44.7197 383.573 43.5217 382.717 42.4436L382.277 43.051ZM383.944 46.0549C384.348 47.1457 384.557 48.2749 384.557 49.4495L385.423 49.9495C385.423 48.6352 385.188 47.322 384.705 46.0169L383.944 46.0549ZM384.557 49.4495C384.557 50.624 384.348 51.5191 383.943 52.1563L384.706 53.0697C385.188 52.3112 385.423 51.264 385.423 49.9495L384.557 49.4495ZM383.942 52.1577C383.546 52.7907 382.993 53.1413 382.277 53.2155L382.717 54.3308C383.572 54.2422 384.237 53.8193 384.707 53.0683L383.942 52.1577ZM382.277 53.2155C381.567 53.2891 380.733 53.0574 379.762 52.4968L379.762 53.4968C380.866 54.1342 381.856 54.4201 382.717 54.3308L382.277 53.2155ZM379.762 51.3858C380.474 51.7967 381.111 51.9777 381.655 51.8957L381.193 50.7832C380.81 50.8408 380.34 50.7193 379.762 50.3858L379.762 51.3858ZM381.657 51.8954C382.203 51.8082 382.623 51.4884 382.917 50.9529L382.137 50.0686C381.907 50.4868 381.592 50.7195 381.191 50.7835L381.657 51.8954ZM382.917 50.9529C383.213 50.4141 383.353 49.673 383.353 48.7545L382.487 48.2545C382.487 49.0573 382.365 49.6537 382.137 50.0686L382.917 50.9529ZM383.353 48.7545C383.353 47.8259 383.214 46.9217 382.916 46.0488L382.138 46.0404C382.364 46.7028 382.487 47.4385 382.487 48.2545L383.353 48.7545ZM382.917 46.0529C382.623 45.1764 382.201 44.3747 381.651 43.6656L381.197 44.2541C381.594 44.7661 381.908 45.3543 382.137 46.0363L382.917 46.0529ZM381.655 43.6702C381.111 42.9602 380.474 42.4053 379.762 41.9944L379.762 42.9944C380.34 43.3278 380.81 43.7499 381.193 44.2495L381.655 43.6702ZM379.762 41.9944C379.059 41.5883 378.424 41.4095 377.873 41.484L378.328 42.5976C378.723 42.5441 379.196 42.6677 379.762 42.9944L379.762 41.9944ZM377.873 41.484C377.323 41.5583 376.902 41.8734 376.607 42.4098L377.387 43.2942C377.617 42.8769 377.931 42.6512 378.328 42.5976L377.873 41.484ZM376.608 42.4073C376.311 42.9363 376.171 43.6797 376.171 44.6083L377.037 45.1083C377.037 44.2923 377.16 43.6981 377.386 43.2967L376.608 42.4073ZM376.171 44.6083C376.171 45.5268 376.311 46.4293 376.607 47.3098L377.387 47.3265C377.16 46.6486 377.037 45.9111 377.037 45.1083L376.171 44.6083ZM376.607 47.3098C376.901 48.1849 377.321 48.9892 377.867 49.7073L378.333 49.1334C377.933 48.6071 377.617 48.01 377.387 47.3265L376.607 47.3098ZM377.873 49.7146C378.424 50.4253 379.059 50.9798 379.762 51.3858L379.762 50.3858C379.196 50.0592 378.723 49.6367 378.328 49.1262L377.873 49.7146ZM389.914 58.6485L389.495 58.5338L389.58 58.9557L389.914 59.1485L389.914 58.6485ZM387.134 44.8313L387.134 44.3313L386.572 44.0071L386.715 44.7166L387.134 44.8313ZM389.309 46.0874L389.732 46.2226L389.656 45.7878L389.309 45.5874L389.309 46.0874ZM391.153 56.6945L390.73 56.5594L391.571 57.0636L391.153 56.6945ZM393.328 48.4077L393.328 47.9077L392.994 47.715L392.909 48.0387L393.328 48.4077ZM395.579 49.7074L395.999 49.8256L395.916 49.4015L395.579 49.2074L395.579 49.7074ZM397.695 60.4716L397.275 60.3533L398.117 60.8252L397.695 60.4716ZM399.553 52.0016L399.553 51.5016L399.206 51.3015L399.13 51.648L399.553 52.0016ZM401.744 53.2664L402.162 53.6381L402.309 53.0928L401.744 52.7664L401.744 53.2664ZM398.888 63.8299L398.888 64.3299L399.22 64.5213L399.306 64.2016L398.888 63.8299ZM396.456 62.4255L396.037 62.3108L396.122 62.7327L396.456 62.9255L396.456 62.4255ZM394.431 52.3592L394.85 52.4739L394.439 50.4297L394.013 51.9865L394.431 52.3592ZM392.331 60.0441L392.331 60.5441L392.662 60.7351L392.749 60.4168L392.331 60.0441ZM390.332 58.7631L387.552 44.946L386.715 44.7166L389.495 58.5338L390.332 58.7631ZM387.134 45.3313L389.309 46.5874L389.309 45.5874L387.134 44.3313L387.134 45.3313ZM388.887 45.9522L390.73 56.5594L391.575 56.8297L389.732 46.2226L388.887 45.9522ZM391.571 57.0636L393.747 48.7768L392.909 48.0387L390.734 56.3255L391.571 57.0636ZM393.328 48.9077L395.579 50.2074L395.579 49.2074L393.328 47.9077L393.328 48.9077ZM395.16 49.5892L397.275 60.3533L398.114 60.5898L395.999 49.8256L395.16 49.5892ZM398.117 60.8252L399.975 52.3552L399.13 51.648L397.272 60.118L398.117 60.8252ZM399.553 52.5016L401.744 53.7664L401.744 52.7664L399.553 51.5016L399.553 52.5016ZM401.326 52.8947L398.47 63.4582L399.306 64.2016L402.162 53.6381L401.326 52.8947ZM398.888 63.3299L396.456 61.9255L396.456 62.9255L398.888 64.3299L398.888 63.3299ZM396.874 62.5402L394.85 52.4739L394.012 52.2445L396.037 62.3108L396.874 62.5402ZM394.013 51.9865L391.913 59.6714L392.749 60.4168L394.849 52.7319L394.013 51.9865ZM392.331 59.5441L389.914 58.1485L389.914 59.1485L392.331 60.5441L392.331 59.5441Z" fill="#C09FFF"/>
<path d="M343.72 91.037C337.048 87.1849 331.633 90.3112 331.633 98.0153C331.633 105.719 337.048 115.098 343.72 118.95C350.392 122.802 355.807 119.676 355.807 111.972C355.807 104.268 350.392 94.889 343.72 91.037ZM349.328 103.765C349.147 105.866 348.361 110.772 347.962 113.012C347.793 113.961 347.455 114.114 347.14 113.975C346.439 113.64 345.907 112.733 345.231 111.826C344.167 110.402 343.563 109.551 342.535 108.176C341.339 106.578 342.112 106.522 342.801 106.11C342.982 106.006 346.077 104.54 346.137 104.282C346.145 104.242 346.144 104.196 346.134 104.146C346.123 104.096 346.104 104.044 346.077 103.996C346.004 103.884 345.907 103.856 345.823 103.821C345.714 103.786 344.022 104.107 340.722 104.77C340.239 104.868 339.804 104.812 339.417 104.575C338.982 104.31 338.16 103.57 337.543 102.977C336.782 102.258 336.19 101.763 336.238 101.302C336.262 101.065 336.564 100.988 337.132 101.051C340.662 101.316 343.007 101.498 344.179 101.616C347.539 101.937 348.228 102.056 348.687 102.321C348.784 102.377 349.014 102.537 349.159 102.761C349.28 102.942 349.316 103.117 349.328 103.235C349.316 103.312 349.34 103.577 349.328 103.765Z" fill="#C09FFF"/>
<circle cx="34.0144" cy="34.0144" r="34.0144" transform="matrix(0.866025 -0.5 0.866025 0.5 208.637 214.98)" stroke="url(#paint16_linear_8156_13854)" stroke-width="4.06454"/>
<circle cx="36.3198" cy="36.3198" r="36.3198" transform="matrix(0.866025 -0.5 2.20305e-08 1 239.784 145.64)" fill="url(#paint17_linear_8156_13854)" stroke="url(#paint18_linear_8156_13854)" stroke-width="1.23886"/>
<path d="M271.552 150.382L271.867 149.682L271.552 149.608L271.237 150.046L271.552 150.382ZM264.566 160.089L264.251 159.753L263.624 160.624L264.244 160.787L264.566 160.089ZM278.537 152.022L279.085 151.706L279.085 151.377L278.853 151.323L278.537 152.022ZM278.537 163.748L278.215 164.446L279.085 164.674L279.085 163.432L278.537 163.748ZM277.916 167.511L278.237 167.839L278.85 166.974L278.238 166.813L277.916 167.511ZM263.945 163.851L264.268 163.153L263.397 162.926L263.397 164.168L263.945 163.851ZM271.12 177.109L270.81 177.81L271.128 177.878L271.441 177.437L271.12 177.109ZM263.945 175.577L263.397 175.894L263.397 176.227L263.636 176.278L263.945 175.577ZM271.237 150.046L264.251 159.753L264.881 160.424L271.867 150.717L271.237 150.046ZM278.853 151.323L271.867 149.682L271.237 151.081L278.222 152.722L278.853 151.323ZM279.085 163.432L279.085 151.706L277.989 152.339L277.989 164.065L279.085 163.432ZM264.244 160.787L278.215 164.446L278.86 163.05L264.888 159.391L264.244 160.787ZM278.238 166.813L264.268 163.153L263.623 164.549L277.594 168.209L278.238 166.813ZM271.441 177.437L278.237 167.839L277.595 167.184L270.798 176.782L271.441 177.437ZM263.636 176.278L270.81 177.81L271.429 176.408L264.255 174.876L263.636 176.278ZM263.397 164.168L263.397 175.894L264.493 175.261L264.493 163.535L263.397 164.168Z" fill="white"/>
<circle cx="28.5465" cy="28.5465" r="28.5465" transform="matrix(0.866025 -0.5 2.20305e-08 1 246.519 149.523)" stroke="white" stroke-width="1.23886"/>
<defs>
<linearGradient id="paint0_linear_8156_13854" x1="405.485" y1="261.878" x2="409.458" y2="233.646" gradientUnits="userSpaceOnUse">
<stop stop-color="#FEF3CC"/>
<stop offset="0.234375" stop-color="#D2BBC4"/>
<stop offset="0.473958" stop-color="#B689D3"/>
<stop offset="0.697917" stop-color="#9493FF"/>
<stop offset="1" stop-color="#4C1CB2"/>
</linearGradient>
<linearGradient id="paint1_linear_8156_13854" x1="70.5773" y1="327.336" x2="66.6041" y2="299.104" gradientUnits="userSpaceOnUse">
<stop stop-color="#FEF3CC"/>
<stop offset="0.234375" stop-color="#D2BBC4"/>
<stop offset="0.473958" stop-color="#B689D3"/>
<stop offset="0.697917" stop-color="#9493FF"/>
<stop offset="1" stop-color="#4C1CB2"/>
</linearGradient>
<linearGradient id="paint2_linear_8156_13854" x1="122.852" y1="356.805" x2="118.878" y2="328.573" gradientUnits="userSpaceOnUse">
<stop stop-color="#FEF3CC"/>
<stop offset="0.234375" stop-color="#D2BBC4"/>
<stop offset="0.473958" stop-color="#B689D3"/>
<stop offset="0.697917" stop-color="#9493FF"/>
<stop offset="1" stop-color="#4C1CB2"/>
</linearGradient>
<linearGradient id="paint3_linear_8156_13854" x1="125.343" y1="0" x2="125.343" y2="250.686" gradientUnits="userSpaceOnUse">
<stop stop-color="#7F5EC3"/>
<stop offset="1" stop-color="#564183"/>
</linearGradient>
<radialGradient id="paint4_radial_8156_13854" cx="0" cy="0" r="1" gradientUnits="userSpaceOnUse" gradientTransform="translate(202.296 365.897) rotate(130.905) scale(129.829 256.13)">
<stop stop-color="#7245D2"/>
<stop offset="1" stop-color="#220B81" stop-opacity="0"/>
</radialGradient>
<radialGradient id="paint5_radial_8156_13854" cx="0" cy="0" r="1" gradientUnits="userSpaceOnUse" gradientTransform="translate(346.222 434.157) rotate(130.725) scale(54.8063 108.124)">
<stop stop-color="#AF1CB2"/>
<stop offset="1" stop-color="#6349CC"/>
</radialGradient>
<radialGradient id="paint6_radial_8156_13854" cx="0" cy="0" r="1" gradientUnits="userSpaceOnUse" gradientTransform="translate(188.881 308.707) rotate(49.2748) scale(54.8063 108.124)">
<stop stop-color="#4C1CB2"/>
<stop offset="1" stop-color="#292C7D"/>
</radialGradient>
<linearGradient id="paint7_linear_8156_13854" x1="178.63" y1="60.7792" x2="81.5519" y2="221.63" gradientUnits="userSpaceOnUse">
<stop stop-color="#FDEFFE"/>
<stop offset="1" stop-color="#F6EFFE"/>
</linearGradient>
<radialGradient id="paint8_radial_8156_13854" cx="0" cy="0" r="1" gradientUnits="userSpaceOnUse" gradientTransform="translate(346.222 310.189) rotate(130.725) scale(54.8063 108.124)">
<stop stop-color="#AF1CB2"/>
<stop offset="1" stop-color="#6349CC"/>
</radialGradient>
<linearGradient id="paint9_linear_8156_13854" x1="45.4212" y1="0" x2="45.4212" y2="90.8423" gradientUnits="userSpaceOnUse">
<stop stop-color="#261646"/>
<stop offset="1" stop-color="#5218CE"/>
</linearGradient>
<linearGradient id="paint10_linear_8156_13854" x1="267.867" y1="210.858" x2="267.867" y2="238.733" gradientUnits="userSpaceOnUse">
<stop stop-color="#6339DC"/>
<stop offset="1" stop-color="#401AAD"/>
</linearGradient>
<linearGradient id="paint11_linear_8156_13854" x1="263.853" y1="139.721" x2="263.853" y2="226.242" gradientUnits="userSpaceOnUse">
<stop stop-color="white" stop-opacity="0"/>
<stop offset="1" stop-color="#FF9921"/>
</linearGradient>
<linearGradient id="paint12_linear_8156_13854" x1="199.608" y1="464.704" x2="193.959" y2="424.481" gradientUnits="userSpaceOnUse">
<stop stop-color="#FEF3CC"/>
<stop offset="0.234375" stop-color="#D2BBC4"/>
<stop offset="0.473958" stop-color="#B689D3"/>
<stop offset="0.697917" stop-color="#9493FF"/>
<stop offset="1" stop-color="#4C1CB2"/>
</linearGradient>
<linearGradient id="paint13_linear_8156_13854" x1="117.504" y1="506.78" x2="111.855" y2="466.556" gradientUnits="userSpaceOnUse">
<stop stop-color="#FEF3CC"/>
<stop offset="0.234375" stop-color="#D2BBC4"/>
<stop offset="0.473958" stop-color="#B689D3"/>
<stop offset="0.697917" stop-color="#9493FF"/>
<stop offset="1" stop-color="#4C1CB2"/>
</linearGradient>
<linearGradient id="paint14_linear_8156_13854" x1="321.41" y1="455.838" x2="327.059" y2="415.615" gradientUnits="userSpaceOnUse">
<stop stop-color="#FEF3CC"/>
<stop offset="0.234375" stop-color="#D2BBC4"/>
<stop offset="0.473958" stop-color="#B689D3"/>
<stop offset="0.697917" stop-color="#9493FF"/>
<stop offset="1" stop-color="#4C1CB2"/>
</linearGradient>
<linearGradient id="paint15_linear_8156_13854" x1="374.539" y1="493.045" x2="380.187" y2="452.822" gradientUnits="userSpaceOnUse">
<stop stop-color="#FEF3CC"/>
<stop offset="0.234375" stop-color="#D2BBC4"/>
<stop offset="0.473958" stop-color="#B689D3"/>
<stop offset="0.697917" stop-color="#9493FF"/>
<stop offset="1" stop-color="#4C1CB2"/>
</linearGradient>
<linearGradient id="paint16_linear_8156_13854" x1="19.525" y1="67.2386" x2="83.4438" y2="8.06093" gradientUnits="userSpaceOnUse">
<stop offset="0.396161" stop-color="#43189F"/>
<stop offset="1" stop-color="#43189F" stop-opacity="0"/>
</linearGradient>
<linearGradient id="paint17_linear_8156_13854" x1="83.5236" y1="76.7669" x2="61.6655" y2="-10.9113" gradientUnits="userSpaceOnUse">
<stop stop-color="#FEF3CC"/>
<stop offset="0.234375" stop-color="#D2BBC4"/>
<stop offset="0.473958" stop-color="#B689D3"/>
<stop offset="0.697917" stop-color="#9493FF"/>
<stop offset="1" stop-color="#4C1CB2"/>
</linearGradient>
<linearGradient id="paint18_linear_8156_13854" x1="83.5236" y1="76.7669" x2="61.6655" y2="-10.9113" gradientUnits="userSpaceOnUse">
<stop stop-color="#FEF3CC"/>
<stop offset="0.234375" stop-color="#D2BBC4"/>
<stop offset="0.473958" stop-color="#B689D3"/>
<stop offset="0.697917" stop-color="#9493FF"/>
<stop offset="1" stop-color="#4C1CB2"/>
</linearGradient>
<clipPath id="clip0_8156_13854">
<rect width="45.1331" height="45.1331" fill="white" transform="matrix(0.866025 -0.5 2.20305e-08 1 162.699 94.7419)"/>
</clipPath>
</defs>
</svg>
