<?xml version="1.0" encoding="UTF-8" standalone="no" ?>
<!DOCTYPE svg PUBLIC "-//W3C//DTD SVG 1.1//EN" "http://www.w3.org/Graphics/SVG/1.1/DTD/svg11.dtd">
<svg xmlns="http://www.w3.org/2000/svg" xmlns:xlink="http://www.w3.org/1999/xlink" version="1.1" width="1080" height="1080" viewBox="0 0 1080 1080" xml:space="preserve">
<desc>Created with Fabric.js 5.2.4</desc>
<defs>
</defs>
<g transform="matrix(1 0 0 1 540 540)" id="06f96ed4-bb27-4fd0-a1a8-b1a4aaa91a7e"  >
<rect style="stroke: none; stroke-width: 1; stroke-dasharray: none; stroke-linecap: butt; stroke-dashoffset: 0; stroke-linejoin: miter; stroke-miterlimit: 4; fill: rgb(255,255,255); fill-rule: nonzero; opacity: 1; visibility: hidden;" vector-effect="non-scaling-stroke"  x="-540" y="-540" rx="0" ry="0" width="1080" height="1080" />
</g>
<g transform="matrix(1 0 0 1 540 540)" id="ab7ea166-f09a-49d6-8770-146c4615ade5"  >
</g>
<g transform="matrix(1.3 0 0 1.3 1679.03 540)"  >
<g style="" vector-effect="non-scaling-stroke"   >
		<g transform="matrix(3.28 0 0 3.28 407.16 -27.36)"  >
<path style="stroke: none; stroke-width: 1; stroke-dasharray: none; stroke-linecap: butt; stroke-dashoffset: 0; stroke-linejoin: miter; stroke-miterlimit: 4; fill: rgb(76,76,76); fill-rule: nonzero; opacity: 1;" vector-effect="non-scaling-stroke"  transform=" translate(-505.64, -106.55)" d="M 319.16 94.48 C 317.21000000000004 86.87 312.29 81.30000000000001 302.64000000000004 81.30000000000001 C 288.43000000000006 81.30000000000001 282.49000000000007 93.83000000000001 282.49000000000007 106.54 C 282.49000000000007 119.25 288.43000000000006 131.79000000000002 302.64000000000004 131.79000000000002 C 312.94000000000005 131.79000000000002 318.64000000000004 124.09000000000002 319.53000000000003 114.44000000000003 L 330.86 114.44000000000003 C 329.93 130.31000000000003 318.7 141.26000000000002 302.64 141.26000000000002 C 282.77 141.26000000000002 270.89 125.48000000000002 270.89 106.54000000000002 C 270.89 87.60000000000002 282.77 71.83000000000001 302.64 71.83000000000001 C 317.58 71.92000000000002 329.37 80.18 330.76 94.48000000000002 z M 337.73 115.64 C 337.73 100.98 346.55 90.39 361.96000000000004 90.39 C 377.37000000000006 90.39 386.18000000000006 100.98 386.18000000000006 115.64 C 386.18000000000006 130.3 377.36000000000007 140.98 361.96000000000004 140.98 C 346.56 140.98 337.73 130.39999999999998 337.73 115.63999999999999 z M 375.6 115.64 C 375.6 107.38 371.42 98.75 361.96000000000004 98.75 C 352.50000000000006 98.75 348.31000000000006 107.38 348.31000000000006 115.64 C 348.31000000000006 123.9 352.49000000000007 132.64 361.96000000000004 132.64 C 371.43 132.64 375.6 123.99999999999999 375.6 115.63999999999999 z M 395.28000000000003 73.41 L 405.86 73.41 L 405.86 83.41 L 395.28000000000003 83.41 z M 395.28000000000003 91.69 L 405.86 91.69 L 405.86 139.69 L 395.28000000000003 139.69 z M 417.38000000000005 91.69 L 427.38000000000005 91.69 L 427.38000000000005 98.75 L 427.57000000000005 98.93 C 430.66262101731473 93.61459865948741 436.3604678077464 90.35759654501044 442.51000000000005 90.39000000000001 C 452.91 90.39000000000001 459.51000000000005 95.96000000000001 459.51000000000005 106.73000000000002 L 459.51000000000005 139.73000000000002 L 448.94000000000005 139.73000000000002 L 448.94000000000005 109.52000000000001 C 448.75000000000006 102.00000000000001 445.78000000000003 98.75000000000001 439.56000000000006 98.75000000000001 C 432.51000000000005 98.75000000000001 427.96000000000004 104.32000000000002 427.96000000000004 111.37000000000002 L 427.96000000000004 139.68 L 417.38000000000005 139.68 z M 529.98 139.68 L 522.5500000000001 139.68 L 520.7900000000001 131.89000000000001 C 514.57 138.94000000000003 508.9000000000001 141.26000000000002 500.7900000000001 141.26000000000002 C 480.9200000000001 141.26000000000002 469.0400000000001 125.48000000000002 469.0400000000001 106.54000000000002 C 469.0400000000001 87.60000000000002 480.9200000000001 71.83000000000001 500.7900000000001 71.83000000000001 C 515.2700000000001 71.83000000000001 527.4300000000001 79.53000000000002 529.19 94.48000000000002 L 517.9100000000001 94.48000000000002 C 516.7900000000001 85.75000000000001 509.18000000000006 81.30000000000001 500.8300000000001 81.30000000000001 C 486.6300000000001 81.30000000000001 480.6800000000001 93.83000000000001 480.6800000000001 106.54 C 480.6800000000001 119.25 486.6300000000001 131.79000000000002 500.8300000000001 131.79000000000002 C 512.7100000000002 131.98000000000002 519.2100000000002 124.79000000000002 519.3900000000001 113.60000000000002 L 501.7600000000001 113.60000000000002 L 501.7600000000001 104.78000000000003 L 529.9800000000001 104.78000000000003 z M 549.38 118.43 C 549.38 125.95 553.46 132.63 562.28 132.63 C 568.41 132.63 572.12 129.94 573.98 124.63 L 583.98 124.63 C 581.66 135.12 572.75 140.95999999999998 562.26 140.95999999999998 C 547.26 140.95999999999998 538.78 130.46999999999997 538.78 115.70999999999998 C 538.78 102.06999999999998 547.6899999999999 90.36999999999998 561.98 90.36999999999998 C 577.11 90.36999999999998 586.4 104.01999999999998 584.63 118.36999999999998 z M 574.07 111.43 C 573.7 104.75 569.1500000000001 98.72 562 98.72 C 554.67 98.72 549.66 104.28999999999999 549.38 111.43 z M 625.1300000000001 107.75 C 624.2900000000001 101.9 620.0200000000001 98.75 614.1300000000001 98.75 C 608.6600000000001 98.75 600.9500000000002 101.63 600.9500000000002 116.2 C 600.9500000000002 124.2 604.4800000000001 132.63 613.6700000000002 132.63 C 619.8000000000002 132.63 624.0700000000002 128.54999999999998 625.0900000000001 121.67999999999999 L 635.6700000000002 121.67999999999999 C 633.6700000000002 134.10999999999999 626.0200000000002 140.98 613.6700000000002 140.98 C 598.6700000000002 140.98 590.3700000000002 130.31 590.3700000000002 116.19999999999999 C 590.3700000000002 101.71999999999998 598.2600000000002 90.38999999999999 614.0400000000002 90.38999999999999 C 625.1800000000002 90.38999999999999 634.6500000000002 95.95999999999998 635.6700000000002 107.74999999999999 z M 644.6200000000001 73.41 L 655.2100000000002 73.41 L 655.2100000000002 111.09 L 674.3800000000001 91.69 L 687.3800000000001 91.69 L 669.0000000000001 109.33 L 689.1500000000001 139.68 L 676.1800000000001 139.68 L 661.5200000000001 116.38000000000001 L 655.2100000000002 122.51 L 655.2100000000002 139.68 L 644.6200000000001 139.68 z M 691.9700000000001 115.63999999999999 C 691.9700000000001 100.97999999999999 700.7900000000002 90.38999999999999 716.1900000000002 90.38999999999999 C 731.5900000000001 90.38999999999999 740.3800000000002 100.97999999999999 740.3800000000002 115.63999999999999 C 740.3800000000002 130.29999999999998 731.5600000000002 140.98 716.1500000000002 140.98 C 700.7400000000002 140.98 691.9700000000003 130.39999999999998 691.9700000000003 115.63999999999999 z M 729.8400000000001 115.63999999999999 C 729.8400000000001 107.37999999999998 725.6600000000002 98.74999999999999 716.1900000000002 98.74999999999999 C 706.7200000000001 98.74999999999999 702.5500000000002 107.37999999999998 702.5500000000002 115.63999999999999 C 702.5500000000002 123.89999999999999 706.7300000000001 132.64 716.1900000000002 132.64 C 725.6500000000002 132.64 729.8400000000001 123.99999999999999 729.8400000000001 115.63999999999999 z" stroke-linecap="round" />
</g>
		<g transform="matrix(3.28 0 0 3.28 -865.54 -0.02)"  >
<path style="stroke: none; stroke-width: 1; stroke-dasharray: none; stroke-linecap: butt; stroke-dashoffset: 0; stroke-linejoin: miter; stroke-miterlimit: 4; fill: rgb(141,198,63); fill-rule: nonzero; opacity: 1;" vector-effect="non-scaling-stroke"  transform=" translate(-117.25, -114.89)" d="M 212.16 114.47 C 212.39141246425433 166.88528525490958 170.0891899906051 209.5644754065854 117.67391445589621 209.79807913665243 C 65.25863892118733 210.03168286671948 22.577680326067224 167.73124467023433 22.341885330595744 115.31597894733389 C 22.106090335124264 62.90071322443344 64.40474418051568 20.217986260463746 116.81999999999996 19.97999999999999 C 169.23919094864962 19.747518845460664 211.92304741069344 62.050829073051595 212.16000000000003 114.46999999999996 z" stroke-linecap="round" />
</g>
		<g transform="matrix(3.28 0 0 3.28 -865.54 -0.02)"  >
<path style="stroke: none; stroke-width: 1; stroke-dasharray: none; stroke-linecap: butt; stroke-dashoffset: 0; stroke-linejoin: miter; stroke-miterlimit: 4; fill: rgb(249,233,136); fill-rule: nonzero; opacity: 1;" vector-effect="non-scaling-stroke"  transform=" translate(-117.25, -114.89)" d="M 205.01 114.49 C 205.23040708118722 162.95777116890775 166.11836904356207 202.4274313897464 117.65059940208525 202.64817409920857 C 69.18282976060843 202.86891680867078 29.71289869875764 163.75715209039402 29.491820361031074 115.28938397867228 C 29.270742023304507 66.82161586695052 68.38223342035747 27.351413965980285 116.85 27.12999999999998 C 140.1254721620447 27.023671300223935 162.48985441139678 36.1679677674282 179.0231141828272 52.55119795835559 C 195.5563739542576 68.93442814928298 204.90415483228298 91.21452563407166 205.01 114.48999999999995 z" stroke-linecap="round" />
</g>
		<g transform="matrix(3.28 0 0 3.28 -726.68 -125.88)"  >
<path style="stroke: none; stroke-width: 1; stroke-dasharray: none; stroke-linecap: butt; stroke-dashoffset: 0; stroke-linejoin: miter; stroke-miterlimit: 4; fill: rgb(255,255,255); fill-rule: nonzero; opacity: 1;" vector-effect="non-scaling-stroke"  transform=" translate(-159.63, -76.48)" d="M 118.85 32.82 C 124.42923662049581 31.824067240844762 130.14076337950414 31.824067240844762 135.71999999999997 32.81999999999999 C 141.35269409744822 33.71255810070049 146.79726801075807 35.53755494315072 151.82999999999998 38.21999999999999 C 156.82999999999998 40.97 161.16 44.7 165.45999999999998 48.22 C 169.75999999999996 51.739999999999995 174.04999999999998 55.3 178.12999999999997 59.22 C 182.29025558112346 63.0742090453384 185.9218198573653 67.46234921246395 188.92999999999998 72.27 C 192.03164902499537 77.04515976997065 194.57179006909143 82.16235275840721 196.5 87.51999999999998 C 200.2516779449987 98.22126226091041 201.31958128871102 109.67976212575911 199.61 120.88999999999999 L 199.04999999999998 120.88999999999999 C 197.40295572530937 110.1803041894711 194.64818080166674 99.67060326423604 190.82999999999996 89.53 C 189.0001544116067 84.51512955673437 186.84559321985168 79.6247767121927 184.38 74.88999999999996 C 181.78880071676343 70.16896225391949 178.93775576777392 65.59527187907685 175.83999999999997 61.18999999999994 C 172.6800256024578 56.73123431461451 168.8083764675561 52.822422753461595 164.38 49.619999999999976 C 159.93 46.44999999999998 154.81 44.389999999999986 149.85 42.43999999999998 C 144.89 40.48999999999998 139.93 38.54999999999998 134.78 37.05999999999998 C 129.63 35.56999999999998 124.36 34.45999999999998 118.87 33.37999999999998 z" stroke-linecap="round" />
</g>
		<g transform="matrix(3.28 0 0 3.28 -866.84 64.94)"  >
<path style="stroke: none; stroke-width: 1; stroke-dasharray: none; stroke-linecap: butt; stroke-dashoffset: 0; stroke-linejoin: miter; stroke-miterlimit: 4; fill: rgb(139,197,63); fill-rule: nonzero; opacity: 1;" vector-effect="non-scaling-stroke"  transform=" translate(-116.85, -134.71)" d="M 161.75 83.49 C 155.38 81.64 148.75 79.03 142.09 76.39 C 141.71 74.71 140.22 72.62 137.22 70.07 C 132.85 66.27999999999999 124.65 66.38 117.56 68.07 C 109.74000000000001 66.22999999999999 102.01 65.58 94.56 67.36 C 33.910000000000004 84.06 68.31 124.89 46.03 165.89 C 49.2 172.60999999999999 83.37 211.89 132.81 201.32 C 132.81 201.32 115.91 160.69 154.06 141.19 C 185.01 125.32 207.38 95.94 161.75 83.49 z" stroke-linecap="round" />
</g>
		<g transform="matrix(3.28 0 0 3.28 -707.24 -15.29)"  >
<path style="stroke: none; stroke-width: 1; stroke-dasharray: none; stroke-linecap: butt; stroke-dashoffset: 0; stroke-linejoin: miter; stroke-miterlimit: 4; fill: rgb(255,255,255); fill-rule: nonzero; opacity: 1;" vector-effect="non-scaling-stroke"  transform=" translate(-165.56, -110.23)" d="M 169.24 110.2 C 169.25214296798902 111.69017944878513 168.3643630963232 113.04057588809685 166.99148026754298 113.62020937547797 C 165.61859743876278 114.19984286285909 164.0316660710799 113.8942737575737 162.97218831446625 112.84628085469029 C 161.9127105578526 111.79828795180687 161.58986386059945 110.21478119340212 162.15450006482146 108.83566256248785 C 162.71913626904347 107.45654393157358 164.05977671492482 106.55409900876228 165.55 106.55 C 166.52334886971516 106.54468119277684 167.45894323922977 106.92624903154187 168.15095562587948 107.61075992890541 C 168.84296801252918 108.29527082626893 169.23471009933783 109.22665097275589 169.24 110.2 z" stroke-linecap="round" />
</g>
		<g transform="matrix(3.28 0 0 3.28 -824.34 -142.13)"  >
<path style="stroke: none; stroke-width: 1; stroke-dasharray: none; stroke-linecap: butt; stroke-dashoffset: 0; stroke-linejoin: miter; stroke-miterlimit: 4; fill: rgb(0,147,69); fill-rule: nonzero; opacity: 1;" vector-effect="non-scaling-stroke"  transform=" translate(-129.82, -71.52)" d="M 117.56 68.05 C 121.98 68.36999999999999 137.97 73.59 142.09 76.39 C 138.68 66.39 127.09 65.09 117.56 68.05 z" stroke-linecap="round" />
</g>
		<g transform="matrix(3.28 0 0 3.28 -906.44 -70.86)"  >
<path style="stroke: none; stroke-width: 1; stroke-dasharray: none; stroke-linecap: butt; stroke-dashoffset: 0; stroke-linejoin: miter; stroke-miterlimit: 4; fill: rgb(255,255,255); fill-rule: nonzero; opacity: 1;" vector-effect="non-scaling-stroke"  transform=" translate(-104.77, -93.27)" d="M 121.77 93.27 C 121.77 102.65884074712349 114.15884074712349 110.27 104.77 110.27 C 95.3811592528765 110.27 87.77 102.65884074712349 87.77 93.27 C 87.77 83.8811592528765 95.3811592528765 76.27 104.77 76.27 C 114.15884074712349 76.27 121.77 83.8811592528765 121.77 93.27 z" stroke-linecap="round" />
</g>
		<g transform="matrix(3.28 0 0 3.28 -906.34 -70.34)"  >
<path style="stroke: none; stroke-width: 1; stroke-dasharray: none; stroke-linecap: butt; stroke-dashoffset: 0; stroke-linejoin: miter; stroke-miterlimit: 4; fill: rgb(88,89,91); fill-rule: nonzero; opacity: 1;" vector-effect="non-scaling-stroke"  transform=" translate(-104.8, -93.43)" d="M 116.74 93.42 C 116.74404538429827 98.25018715845664 113.8375240325184 102.6070125533119 109.37617353242962 104.45824891483119 C 104.91482303234085 106.30948527635047 99.77757682658158 105.2904193751349 96.36068697588689 101.87639124123308 C 92.94379712519219 98.46236310733127 91.9204272286847 93.32597255125687 93.76792490125018 88.86307251868628 C 95.61542257381569 84.40017248611568 99.96981114749632 81.49000169404734 104.79999999999998 81.49000000000001 C 111.38809592953847 81.49550382988498 116.72897619318371 86.83191099448194 116.74 93.42000000000002 z" stroke-linecap="round" />
</g>
		<g transform="matrix(3.28 0 0 3.28 -876.11 136.97)"  >
<path style="stroke: none; stroke-width: 1; stroke-dasharray: none; stroke-linecap: butt; stroke-dashoffset: 0; stroke-linejoin: miter; stroke-miterlimit: 4; fill: rgb(139,197,63); fill-rule: nonzero; opacity: 1;" vector-effect="non-scaling-stroke"  transform=" translate(-114.03, -156.69)" d="M 182.99 117.68 C 169.24 127.37 153.60000000000002 134.68 131.42000000000002 134.68 C 121.04000000000002 134.68 118.94000000000001 123.68 112.08000000000001 129.06 C 108.53000000000002 131.85 96.08000000000001 138.06 86.13000000000001 137.62 C 76.18 137.18 60.13000000000001 131.33 55.68000000000001 110.18 C 53.910000000000004 131.33 53.00000000000001 146.91 45.06000000000001 164.77 C 60.88000000000001 190.10000000000002 98.59 209.63 132.81 201.23000000000002 C 129.14000000000001 175.55 151.58 150.39000000000001 164.23000000000002 137.52 C 169.01000000000002 132.65 178.23000000000002 124.69000000000001 182.99 117.64000000000001 z" stroke-linecap="round" />
</g>
		<g transform="matrix(3.28 0 0 3.28 -756.95 39.37)"  >
<path style="stroke: none; stroke-width: 1; stroke-dasharray: none; stroke-linecap: butt; stroke-dashoffset: 0; stroke-linejoin: miter; stroke-miterlimit: 4; fill: rgb(88,89,91); fill-rule: nonzero; opacity: 1;" vector-effect="non-scaling-stroke"  transform=" translate(-150.39, -126.91)" d="M 182.45 118.32 C 178.0693901487913 122.08734834666957 173.18172018188352 125.22124692737972 167.92999999999998 127.63 C 162.69520873954508 130.11736237479406 157.23777493035098 132.1061450021936 151.62999999999997 133.57 C 146.02999999999997 135.01999999999998 140.16999999999996 136.10999999999999 134.23999999999995 135.57 C 128.30999999999995 135.03 122.23999999999995 133.01 118.32999999999996 128.57 L 118.51999999999995 128.35 C 123.35999999999996 131.48 128.88999999999996 132.57999999999998 134.40999999999997 132.73999999999998 C 140.01444640446434 132.90272164506342 145.6194664402517 132.43647521479744 151.11999999999995 131.35 C 156.6769957736885 130.1918032749085 162.11387001078006 128.51788879304533 167.36 126.34999999999998 C 172.69095258468664 124.31425427222116 177.70988288334362 121.5405463137414 182.26999999999998 118.11000000000001 z" stroke-linecap="round" />
</g>
		<g transform="matrix(3.28 0 0 3.28 0 0)"  >
<path style="stroke: none; stroke-width: 1; stroke-dasharray: none; stroke-linecap: butt; stroke-dashoffset: 0; stroke-linejoin: miter; stroke-miterlimit: 4; fill: none; fill-rule: nonzero; opacity: 1;" vector-effect="non-scaling-stroke"  transform=" translate(-381.38, -114.89)" d="M 0 0 L 762.77 0 L 762.77 229.79 L 0 229.79 z" stroke-linecap="round" />
</g>
</g>
</g>
</svg>