<svg xmlns="http://www.w3.org/2000/svg" xmlns:xlink="http://www.w3.org/1999/xlink" version="1.0" id="Layer_1" x="0px" y="0px" style="enable-background:new 0 0 1154 790;" xml:space="preserve" viewBox="217.96 96.1 718.04 597.8">
<style type="text/css">
	.st0{fill:#3B1576;}
	.st1{fill:none;}
</style>
<path class="st0" d="M396.6,96.1h358.5c17.7,1.4,33,16.7,32.9,34.7c0.2,117.2,0,234.4,0.1,351.5c1.2,19-15.1,36.8-34.2,36.7  c-118.1,0.2-236.2,0.2-354.4,0c-19.3,0.1-35.4-17.8-34.4-36.9c0-116.2,0-232.5,0-348.7C364.1,115.1,378.5,98.5,396.6,96.1z   M469,219.3c-0.2,55.5,0,110.9-0.1,166.4c0,8.7-0.4,18,3.7,26c6.4,14.1,22.1,22.9,37.4,22.1c58.1,0,116.3,0,174.4,0  c0-9.7,0-19.4,0-29.1c-58.2-0.1-116.5,0-174.7,0c-6.4,1-12.5-4.1-11.5-10.8c-0.1-57.2-0.1-114.4,0-171.6c-0.9-5.2,2.8-11.3,8.5-11.1  c59.2-0.3,118.4,0,177.6-0.1c0-9.8,0-19.5,0-29.3c-59.1,0-118.2-0.1-177.3,0.1C487,181.5,468.7,199.1,469,219.3z"/>
<path d="M218.1,632.4c-0.7-6.3,4.1-12.6,10.6-12.7c17.6-0.6,35.1-0.1,52.7-0.2v9c-18,0.1-36.1-0.3-54.1,0.2  c-0.4,18.5,0,36.9-0.2,55.4c18.1,1.5,36.2,0.2,54.3,0.6c0,2.2,0,6.5,0,8.7c-17.6,0-35.2,0.2-52.9,0c-5.6,0.2-10.4-5.1-10.3-10.6  C217.8,666,218,649.2,218.1,632.4z"/>
<path d="M331.2,620.2c14.7-1.7,29.7-0.2,44.5-0.8c6.9-0.2,16.4-0.5,19.1,7.6c1,17.9,0.2,35.8,0.4,53.6c1.1,6.7-4.4,13.5-11.4,12.8  c-16.1,0.1-32.1,0.1-48.1,0c-6,0.8-12.2-4.2-12.1-10.3c-0.3-16.9-0.1-33.9-0.1-50.8C322.9,627,326.1,621.9,331.2,620.2z   M332.5,628.8c-0.2,18.2-0.6,36.4,0.1,54.5l1.2,1.2c17.4,0.7,34.9,0.3,52.3,0.1c0.8-18.6,0.3-37.2,0.3-55.8  C368.5,628.3,350.5,628.4,332.5,628.8z"/>
<path d="M560.1,619.9c2.9-0.1,5.8-0.1,8.6-0.2c0.2,24.7,0,49.4,0.1,74.1h-9.9c-17.9-20-35.2-40.4-53-60.5c-0.1,20.2,0,40.3-0.1,60.5  h-8.7c0-24.8-0.1-49.5,0.1-74.2l9.5,0.6c17.6,20.7,35.6,40.9,53.4,61.4C560.1,661,560.1,640.5,560.1,619.9z"/>
<path d="M775.9,620.2c17.4-0.9,34.8,0,52.2-0.3v8.7c-17.4,0.3-34.9-0.6-52.3,0.6c0,7.4,0,14.9,0.1,22.3c14.9,0.7,29.8-0.5,44.6,0.6  c6.1,0.3,10.2,6.5,9.6,12.3c-0.5,10,3.5,24.1-7.8,29.5h-55.3c0-2.2,0.1-6.8,0.1-9.1c17.9,0,35.8-0.1,53.7,0.1  c0.6-7.9,0.8-15.9,0.4-23.8c-15.9-1.2-31.9,0.5-47.8-0.9c-8.5-4-6-15-6.5-22.5C766.4,630.9,767.5,621.2,775.9,620.2z"/>
<path d="M866.3,619.8c23.2,0,46.5-0.2,69.7,0.2v8.3c-10.3,0.3-20.5,0.3-30.8,0.3c0,21.8,0,43.5,0,65.3h-8.7c0-21.8,0-43.5,0-65.3  c-10.1,0-20.1,0-30.1,0L866.3,619.8z"/>
<path d="M441.8,619.8h9c0,24.7,0,49.4,0,74.1h-9.1C441.8,669.2,441.8,644.5,441.8,619.8z"/>
<path d="M613.4,619.8h9c0.1,21.7,0,43.3,0.1,65c15.8,0,31.6,0,47.4,0c0,2.3,0.1,6.8,0.1,9.1h-56.7  C613.4,669.2,613.3,644.5,613.4,619.8z"/>
<path d="M710.9,619.8h9c0,24.7,0,49.3,0,74h-9.1C710.9,669.2,710.9,644.5,710.9,619.8z"/>
<rect x="177" y="-5" class="st1" width="800" height="800"/>
</svg>