<?xml version="1.0" encoding="UTF-8" standalone="no" ?>
<!DOCTYPE svg PUBLIC "-//W3C//DTD SVG 1.1//EN" "http://www.w3.org/Graphics/SVG/1.1/DTD/svg11.dtd">
<svg xmlns="http://www.w3.org/2000/svg" xmlns:xlink="http://www.w3.org/1999/xlink" version="1.1" width="1080" height="1080" viewBox="0 0 1080 1080" xml:space="preserve">
<desc>Created with Fabric.js 5.2.4</desc>
<defs>
</defs>
<rect x="0" y="0" width="100%" height="100%" fill="transparent"></rect>
<g transform="matrix(1 0 0 1 540 540)" id="835bf570-af27-44b9-a8ae-ee962e03fd14"  >
<rect style="stroke: none; stroke-width: 1; stroke-dasharray: none; stroke-linecap: butt; stroke-dashoffset: 0; stroke-linejoin: miter; stroke-miterlimit: 4; fill: rgb(230,32,88); fill-rule: nonzero; opacity: 1; visibility: hidden;" vector-effect="non-scaling-stroke"  x="-540" y="-540" rx="0" ry="0" width="1080" height="1080" />
</g>
<g transform="matrix(1 0 0 1 540 540)" id="5ba38e87-6df3-4d7a-b8f8-fd0065f6e1c4"  >
</g>
<g transform="matrix(14.86 0 0 14.61 540 540)" id="6f6a2d2c-15d7-4fef-883c-a64cf57dd631"  >
<circle style="stroke: rgb(0,0,0); stroke-width: 0; stroke-dasharray: none; stroke-linecap: butt; stroke-dashoffset: 0; stroke-linejoin: miter; stroke-miterlimit: 4; fill: rgb(230,32,88); fill-rule: nonzero; opacity: 1;" vector-effect="non-scaling-stroke"  cx="0" cy="0" r="35" />
</g>
<g transform="matrix(14.88 0 0 13.98 540.09 539.98)"  >
<g style="" vector-effect="non-scaling-stroke"   >
		<g transform="matrix(1 0 0 1 -4.6 -0.05)"  >
<path style="stroke: none; stroke-width: 1; stroke-dasharray: none; stroke-linecap: butt; stroke-dashoffset: 0; stroke-linejoin: miter; stroke-miterlimit: 4; fill: rgb(255,255,255); fill-rule: nonzero; opacity: 1;" vector-effect="non-scaling-stroke"  transform=" translate(-13.75, -18.25)" d="M 27.3 13.7 L 9.2 13.7 C 4.199999999999999 13.7 0.1999999999999993 17.599999999999998 0 22.6 C 0 22.700000000000003 0.1 22.8 0.2 22.8 L 18.3 22.8 C 23.3 22.8 27.3 18.900000000000002 27.5 13.9 C 27.5 13.8 27.4 13.7 27.3 13.7 L 27.3 13.7 L 27.3 13.7 z" stroke-linecap="round" />
</g>
		<g transform="matrix(1 0 0 1 0 -13.7)"  >
<path style="stroke: none; stroke-width: 1; stroke-dasharray: none; stroke-linecap: butt; stroke-dashoffset: 0; stroke-linejoin: miter; stroke-miterlimit: 4; fill: rgb(255,255,255); fill-rule: nonzero; opacity: 1;" vector-effect="non-scaling-stroke"  transform=" translate(-18.35, -4.6)" d="M 36.4 0 L 9.2 0 C 4.199999999999999 0 0.1999999999999993 3.9 0 8.9 C 0 9 0.1 9.2 0.2 9.2 L 27.5 9.2 C 32.5 9.2 36.5 5.299999999999999 36.7 0.29999999999999893 C 36.7 0.1 36.6 0 36.4 0 L 36.4 0 L 36.4 0 z" stroke-linecap="round" />
</g>
		<g transform="matrix(1 0 0 1 -13.75 13.7)" id="Ellipse_9"  >
<circle style="stroke: none; stroke-width: 1; stroke-dasharray: none; stroke-linecap: butt; stroke-dashoffset: 0; stroke-linejoin: miter; stroke-miterlimit: 4; fill: rgb(255,255,255); fill-rule: nonzero; opacity: 1;" vector-effect="non-scaling-stroke"  cx="0" cy="0" r="4.6" />
</g>
</g>
</g>
<g transform="matrix(0 0 0 0 0 0)"  >
<g style=""   >
</g>
</g>
<g transform="matrix(NaN NaN NaN NaN 0 0)"  >
<g style=""   >
</g>
</g>
</svg>