<svg xmlns="http://www.w3.org/2000/svg" id="Layer_1" data-name="Layer 1" viewBox="0.04 0 296.96 39.11"><defs><style>.cls-1{fill:#00a071;}</style></defs><path class="cls-1" d="M352.4,325.23l-3.84-6.65c1.81-3.37,1.79-7.42,1.79-12.58,0-6.64,0-11.45-3.84-15.34a14.94,14.94,0,0,0-20.79,0c-3.89,3.89-3.78,8.7-3.78,15.34s-.11,11.45,3.78,15.34a14,14,0,0,0,10.42,4.21,17.05,17.05,0,0,0,3.28-.32Zm-21.12-8.43c-1.46-1.62-1.83-3.4-1.83-10.8s.37-9.18,1.83-10.8a6.37,6.37,0,0,1,4.86-2.05A6.26,6.26,0,0,1,341,295.2c1.46,1.62,1.89,3.4,1.89,10.8s-.43,9.18-1.89,10.8a6.26,6.26,0,0,1-4.81,2.05A6.37,6.37,0,0,1,331.28,316.8Z" transform="translate(-247.5 -286.45)"/><path class="cls-1" d="M440.25,325.21V286.77h7.41v38.44Z" transform="translate(-247.5 -286.45)"/><path class="cls-1" d="M261.54,325.55c-5.83,0-10.26-1.24-14-5.08l4.86-4.86c2.43,2.43,5.72,3.24,9.29,3.24,4.43,0,6.8-1.67,6.8-4.75a4.28,4.28,0,0,0-1.18-3.24,5.76,5.76,0,0,0-3.41-1.35l-4.64-.65c-3.3-.48-5.73-1.51-7.45-3.18a10.15,10.15,0,0,1-2.76-7.56c0-6.86,5.08-11.67,13.4-11.67,5.29,0,9.12,1.3,12.42,4.48l-4.76,4.7c-2.43-2.32-5.34-2.64-7.88-2.64-4,0-5.94,2.21-5.94,4.86a3.71,3.71,0,0,0,1.13,2.75,6.6,6.6,0,0,0,3.57,1.51l4.53.65c3.51.49,5.73,1.46,7.35,3,2.05,1.94,3,4.75,3,8.15C275.8,321.34,269.59,325.55,261.54,325.55Z" transform="translate(-247.5 -286.45)"/><path class="cls-1" d="M286.78,325.23V286.77h25.33v6.7H294.29v9h15.18v6.7H294.29v9.34h17.82v6.7Z" transform="translate(-247.5 -286.45)"/><path class="cls-1" d="M375.82,325.55c-7.89,0-14.15-5.35-14.15-13.5V286.77h7.5v25c0,4.43,2.6,7.07,6.65,7.07s6.69-2.64,6.69-7.07v-25H390v25.28C390,320.2,383.7,325.55,375.82,325.55Z" transform="translate(-247.5 -286.45)"/><path class="cls-1" d="M425.4,321.34a14.94,14.94,0,0,1-20.79,0c-3.89-3.89-3.78-8.7-3.78-15.34s-.11-11.45,3.78-15.34a14.94,14.94,0,0,1,20.79,0c3.89,3.89,3.83,8.7,3.83,15.34S429.29,317.45,425.4,321.34Zm-5.56-26.14a6.26,6.26,0,0,0-4.81-2.05,6.37,6.37,0,0,0-4.86,2.05c-1.46,1.62-1.84,3.4-1.84,10.8s.38,9.18,1.84,10.8a6.37,6.37,0,0,0,4.86,2.05,6.26,6.26,0,0,0,4.81-2.05c1.46-1.62,1.89-3.4,1.89-10.8S421.3,296.82,419.84,295.2Z" transform="translate(-247.5 -286.45)"/><path class="cls-1" d="M483,325.23l-2.26-6.81H467.08l-2.32,6.81h-7.83l14-38.46h5.88l14.05,38.46Zm-9-27.11-4.86,14h9.56Z" transform="translate(-247.5 -286.45)"/><rect class="cls-1" x="287.39" y="0.32" width="9.61" height="9.61"/><polygon class="cls-1" points="263.36 30.57 263.36 0.32 258.55 0.32 258.55 35.38 263.36 30.57"/><polygon class="cls-1" points="266.75 33.97 261.95 38.77 297 38.77 297 33.97 266.75 33.97"/><polygon class="cls-1" points="272.97 20.96 272.97 0.32 268.16 0.32 268.16 25.76 272.97 20.96"/><polygon class="cls-1" points="276.37 24.36 271.56 29.16 297 29.16 297 24.36 276.37 24.36"/><polygon class="cls-1" points="282.58 11.35 282.58 0.32 277.77 0.32 277.77 16.15 282.58 11.35"/><polygon class="cls-1" points="285.98 14.74 281.17 19.55 297 19.55 297 14.74 285.98 14.74"/></svg>