<svg xmlns="http://www.w3.org/2000/svg" xmlns:xlink="http://www.w3.org/1999/xlink" version="1.1" xml:space="preserve" viewBox="0 0 1080 1080">
<desc>Created with Fabric.js 5.2.4</desc>
<defs>
</defs>
<rect x="0" y="0" width="100%" height="100%" fill="transparent"/>
<g transform="matrix(1 0 0 1 540 540)" id="8c599e32-fab8-44ea-861d-8a0d2b7e7887">
<rect style="stroke: none; stroke-width: 1; stroke-dasharray: none; stroke-linecap: butt; stroke-dashoffset: 0; stroke-linejoin: miter; stroke-miterlimit: 4; fill: rgb(255,255,255); fill-rule: nonzero; opacity: 1; visibility: hidden;" vector-effect="non-scaling-stroke" x="-540" y="-540" rx="0" ry="0" width="1080" height="1080"/>
</g>
<g transform="matrix(1 0 0 1 540 540)" id="7a66aa29-b1eb-49d5-ad0f-7ce2a2b8afbe">
</g>
<g transform="matrix(2.46 0 0 2.46 541.04 540.26)">
<path style="stroke: rgb(255,255,255); stroke-width: 0; stroke-dasharray: none; stroke-linecap: butt; stroke-dashoffset: 0; stroke-linejoin: miter; stroke-miterlimit: 4; fill: rgb(255,255,255); fill-rule: nonzero; opacity: 1;" vector-effect="non-scaling-stroke" transform=" translate(-300.13, -225.4)" d="M 136.6 278.4 C 135.9 277 135.1 275.59999999999997 134.4 274.2 C 132 270 129.6 265.8 127 261.2 C 133.6 262.8 139.9 262.9 146.5 261.2 C 146.1 261.9 145.9 262.3 145.7 262.8 C 143 267.6 140.29999999999998 272.3 137.6 277.1 C 137.4 277.5 137.2 278 137 278.40000000000003 C 136.8 278.4 136.6 278.4 136.6 278.4 z M 167.8 225.4 C 167.8 242.5 153.9 256.5 136.70000000000002 256.5 C 119.40000000000002 256.5 105.50000000000001 242.6 105.50000000000001 225.4 C 105.50000000000001 208.3 119.50000000000001 194.4 136.70000000000002 194.4 C 153.9 194.3 167.8 208.2 167.8 225.4 M 234.1 222.4 C 227.29999999999998 222.4 220.5 222.4 213.7 222.4 C 211.39999999999998 222.4 210.89999999999998 221.9 210.89999999999998 219.6 C 210.89999999999998 218.4 210.89999999999998 217.29999999999998 210.89999999999998 216.1 C 210.89999999999998 214.9 211.59999999999997 214.2 212.79999999999998 214.1 C 213.29999999999998 214.1 213.89999999999998 214.1 214.39999999999998 214.1 L 250.09999999999997 214.1 L 251.49999999999997 214.1 C 257.2 214.1 257.5 211 257.09999999999997 207.2 C 256.9 205.6 255.89999999999998 204.39999999999998 254.29999999999995 204.1 C 253.19999999999996 203.9 252.09999999999997 203.7 250.99999999999994 203.7 C 242.19999999999993 203.7 233.39999999999995 203.7 224.69999999999993 203.7 C 222.49999999999994 203.7 220.39999999999992 203.5 218.19999999999993 203.1 C 213.39999999999992 202.1 210.69999999999993 199.2 210.19999999999993 194.29999999999998 C 209.89999999999992 191.49999999999997 209.99999999999994 188.6 210.29999999999993 185.79999999999998 C 210.69999999999993 182.1 212.79999999999993 179.39999999999998 216.39999999999992 178.29999999999998 C 218.5999999999999 177.6 220.89999999999992 177.2 223.19999999999993 177.1 C 236.39999999999992 177 249.49999999999994 177 262.69999999999993 177 C 264.5999999999999 177 265.19999999999993 177.6 265.29999999999995 179.5 C 265.29999999999995 180.7 265.29999999999995 181.9 265.29999999999995 183.1 C 265.19999999999993 184.6 264.59999999999997 185.1 263.09999999999997 185.2 C 262.7 185.2 262.2 185.2 261.79999999999995 185.2 C 249.89999999999995 185.2 238.09999999999997 185.2 226.19999999999996 185.2 C 225.09999999999997 185.2 223.99999999999997 185.2 222.89999999999995 185.39999999999998 C 220.29999999999995 185.99999999999997 219.39999999999995 187.49999999999997 219.49999999999994 190.89999999999998 C 219.59999999999994 193.49999999999997 220.69999999999993 194.89999999999998 223.19999999999993 195.29999999999998 C 224.09999999999994 195.39999999999998 224.99999999999994 195.49999999999997 225.89999999999992 195.49999999999997 C 234.5999999999999 195.49999999999997 243.39999999999992 195.39999999999998 252.0999999999999 195.59999999999997 C 254.5999999999999 195.59999999999997 257.19999999999993 195.89999999999998 259.69999999999993 196.49999999999997 C 263.69999999999993 197.49999999999997 265.99999999999994 200.29999999999998 266.49999999999994 204.39999999999998 C 266.79999999999995 206.99999999999997 266.79999999999995 209.7 266.59999999999997 212.29999999999998 C 266.2 217.89999999999998 262.99999999999994 220.99999999999997 257.09999999999997 221.79999999999998 C 255.39999999999998 221.99999999999997 253.59999999999997 222.1 251.89999999999998 222.1 C 246 222.4 240 222.4 234.1 222.4 M 443.9 200.2 C 443.9 197.2 444 194.2 443.9 191.29999999999998 C 443.79999999999995 187.6 441.59999999999997 185.39999999999998 437.9 185.39999999999998 C 429.29999999999995 185.39999999999998 420.59999999999997 185.39999999999998 412 185.39999999999998 C 408.2 185.39999999999998 406.1 187.49999999999997 405.9 191.29999999999998 C 405.79999999999995 193.99999999999997 405.9 196.79999999999998 405.9 199.49999999999997 C 405.9 199.69999999999996 406 199.89999999999998 406.09999999999997 200.19999999999996 L 443.9 200.19999999999996 L 443.9 200.2 z M 405.8 208.6 L 405.8 210.2 C 405.8 213.5 405.8 216.79999999999998 405.8 220.2 C 405.8 221.89999999999998 405.2 222.39999999999998 403.5 222.5 C 402.1 222.5 400.6 222.5 399.2 222.5 C 397 222.5 396.5 222 396.5 219.7 C 396.5 218.29999999999998 396.5 216.89999999999998 396.5 215.5 C 396.5 207.4 396.5 199.2 396.5 191.1 C 396.5 190 396.6 188.79999999999998 396.7 187.7 C 397.4 182 401 178.29999999999998 406.7 177.5 C 408 177.3 409.3 177.2 410.59999999999997 177.2 C 420.09999999999997 177.2 429.7 177.2 439.2 177.2 C 448.8 177.2 453.3 181.79999999999998 453.3 191.29999999999998 C 453.3 200.7 453.3 210.2 453.3 219.6 C 453.3 222 452.8 222.5 450.40000000000003 222.5 C 449.00000000000006 222.5 447.6 222.5 446.20000000000005 222.5 C 444.50000000000006 222.5 443.90000000000003 221.9 443.80000000000007 220.1 C 443.80000000000007 216.79999999999998 443.80000000000007 213.6 443.80000000000007 210.29999999999998 L 443.80000000000007 208.7 C 443.9 208.6 405.8 208.6 405.8 208.6 z M 470.6 198.1 C 471.1 198.1 471.6 198.2 472 198.2 C 481.6 198.2 491.2 198.2 500.8 198.2 C 501.6 198.2 502.40000000000003 198.2 503.2 198 C 505.7 197.6 506.9 196.2 507 193.7 C 507 192.6 507 191.5 507 190.39999999999998 C 506.9 187.29999999999998 505.5 185.7 502.4 185.39999999999998 C 501.79999999999995 185.29999999999998 501.2 185.39999999999998 500.7 185.39999999999998 C 491.2 185.39999999999998 481.7 185.39999999999998 472.2 185.39999999999998 L 470.59999999999997 185.39999999999998 C 470.6 185.4 470.6 198.1 470.6 198.1 z M 470.5 206.6 C 470.5 210.9 470.5 215.2 470.5 219.5 C 470.5 221.9 470 222.4 467.7 222.4 C 466.3 222.4 464.8 222.4 463.4 222.4 C 461.79999999999995 222.4 461.29999999999995 221.8 461.2 220.20000000000002 C 461.2 219.9 461.2 219.60000000000002 461.2 219.3 L 461.2 180.20000000000002 C 461.2 177.60000000000002 461.7 177.10000000000002 464.3 177.10000000000002 C 476.8 177.10000000000002 489.40000000000003 177.10000000000002 501.90000000000003 177.10000000000002 C 504.1 177.10000000000002 506.3 177.3 508.40000000000003 177.70000000000002 C 513.3000000000001 178.70000000000002 516.1 182.00000000000003 516.4000000000001 187.00000000000003 C 516.5000000000001 189.20000000000002 516.5000000000001 191.40000000000003 516.4000000000001 193.60000000000002 C 516.1000000000001 197.3 514.4000000000001 200.20000000000002 510.80000000000007 201.70000000000002 C 510.50000000000006 201.8 510.30000000000007 202.00000000000003 510.00000000000006 202.20000000000002 C 510.20000000000005 202.3 510.30000000000007 202.50000000000003 510.40000000000003 202.50000000000003 C 514.7 204.30000000000004 516.4000000000001 207.80000000000004 516.5 212.30000000000004 C 516.6 214.90000000000003 516.6 217.50000000000003 516.5 220.10000000000005 C 516.5 221.80000000000004 515.9 222.30000000000004 514.2 222.30000000000004 C 512.6 222.30000000000004 511.00000000000006 222.30000000000004 509.40000000000003 222.30000000000004 C 507.8 222.30000000000004 507.20000000000005 221.70000000000005 507.20000000000005 220.10000000000005 C 507.20000000000005 217.70000000000005 507.20000000000005 215.30000000000004 507.20000000000005 212.90000000000006 C 507.20000000000005 208.70000000000007 505.20000000000005 206.50000000000006 501.1 206.40000000000006 C 491.1 206.30000000000007 481.1 206.40000000000006 471.20000000000005 206.40000000000006 C 470.9 206.5 470.8 206.5 470.5 206.6 z M 301.8 185.4 C 297.40000000000003 185.4 293 185.4 288.6 185.4 C 284.3 185.4 282.1 187.5 282.1 191.9 C 282.1 197.20000000000002 282.1 202.5 282.1 207.8 C 282.1 212 284.3 214.20000000000002 288.6 214.20000000000002 C 297.40000000000003 214.20000000000002 306.1 214.20000000000002 314.90000000000003 214.20000000000002 C 319.20000000000005 214.20000000000002 321.3 212.10000000000002 321.40000000000003 207.8 C 321.50000000000006 202.5 321.50000000000006 197.10000000000002 321.40000000000003 191.8 C 321.3 187.4 319.20000000000005 185.4 314.8 185.4 C 310.5 185.3 306.1 185.4 301.8 185.4 z M 301.7 222.4 C 296.59999999999997 222.4 291.59999999999997 222.4 286.5 222.4 C 285.3 222.4 284.2 222.3 283 222.20000000000002 C 276.9 221.3 273.1 217.3 272.8 211.10000000000002 C 272.5 204.8 272.7 198.40000000000003 272.7 192.00000000000003 C 272.7 190.20000000000002 272.7 188.40000000000003 273.09999999999997 186.70000000000002 C 274.09999999999997 181.50000000000003 277.49999999999994 178.3 282.7 177.4 C 283.9 177.20000000000002 285.09999999999997 177.1 286.3 177.1 C 296.6 177.1 306.8 177.1 317.1 177.1 C 317.90000000000003 177.1 318.70000000000005 177.1 319.6 177.2 C 326.40000000000003 178 330.5 182.1 330.70000000000005 189 C 330.90000000000003 196.2 330.90000000000003 203.3 330.70000000000005 210.5 C 330.50000000000006 217.7 325.80000000000007 222 318.50000000000006 222.3 C 318.30000000000007 222.3 318.1000000000001 222.3 317.90000000000003 222.3 C 312.5 222.4 307.1 222.4 301.7 222.4 C 301.7 222.4 301.7 222.4 301.7 222.4 z M 369.4 222.4 C 363.59999999999997 222.4 357.79999999999995 222.4 352 222.4 C 350.7 222.4 349.4 222.3 348.1 222.1 C 342.5 221.2 339 217.7 338.20000000000005 212.1 C 338.1 211.1 338.00000000000006 210.2 338.00000000000006 209.2 C 338.00000000000006 199.39999999999998 338.00000000000006 189.7 338.00000000000006 179.89999999999998 C 338.00000000000006 177.59999999999997 338.50000000000006 177.09999999999997 340.80000000000007 177.09999999999997 C 342.00000000000006 177.09999999999997 343.1000000000001 177.09999999999997 344.30000000000007 177.09999999999997 C 346.9000000000001 177.09999999999997 347.4000000000001 177.49999999999997 347.4000000000001 180.09999999999997 L 347.4000000000001 204.39999999999998 C 347.4000000000001 205.49999999999997 347.4000000000001 206.49999999999997 347.4000000000001 207.59999999999997 C 347.5000000000001 212.09999999999997 349.6000000000001 214.19999999999996 354.1000000000001 214.19999999999996 C 365.30000000000007 214.19999999999996 376.50000000000006 214.19999999999996 387.7000000000001 214.19999999999996 C 388.2000000000001 214.19999999999996 388.7000000000001 214.19999999999996 389.1000000000001 214.19999999999996 C 390.9000000000001 214.29999999999995 391.4000000000001 214.79999999999995 391.4000000000001 216.59999999999997 C 391.4000000000001 217.69999999999996 391.4000000000001 218.79999999999995 391.4000000000001 219.89999999999998 C 391.4000000000001 221.89999999999998 390.80000000000007 222.39999999999998 388.9000000000001 222.39999999999998 C 382.4 222.4 375.9 222.4 369.4 222.4 M 216.4 256.7 L 241.6 256.7 C 243.6 256.7 243.79999999999998 257 243.79999999999998 259 L 243.79999999999998 259.4 C 243.79999999999998 262 243.7 262.09999999999997 241.1 262.09999999999997 L 216.1 262.09999999999997 C 216.1 262.99999999999994 216.1 263.7 216.1 264.4 C 216.1 267.79999999999995 217.5 269.09999999999997 220.79999999999998 269.09999999999997 C 228.79999999999998 269.09999999999997 236.7 269.09999999999997 244.7 269.09999999999997 C 247 269.09999999999997 247.2 269.29999999999995 247.29999999999998 271.7 L 247.29999999999998 272.59999999999997 C 247.29999999999998 274.49999999999994 246.99999999999997 274.79999999999995 245.1 274.79999999999995 C 238.7 274.79999999999995 232.29999999999998 274.79999999999995 225.9 274.79999999999995 C 223.5 274.79999999999995 221.1 274.79999999999995 218.70000000000002 274.79999999999995 C 213.10000000000002 274.69999999999993 210.00000000000003 271.69999999999993 209.9 266.09999999999997 C 209.8 261.7 209.8 257.2 209.9 252.79999999999995 C 210 247.19999999999996 213 244.19999999999996 218.5 244.09999999999997 C 227.5 243.99999999999997 236.4 244.09999999999997 245.4 244.09999999999997 C 246.70000000000002 244.09999999999997 247.3 244.69999999999996 247.3 245.99999999999997 C 247.4 249.69999999999996 247.4 249.69999999999996 243.70000000000002 249.69999999999996 C 236.50000000000003 249.69999999999996 229.20000000000002 249.79999999999995 222.00000000000003 249.69999999999996 C 217.9 249.5 215.5 250.6 216.4 256.7 M 484.6 269.1 C 485.1 269.1 485.5 269.20000000000005 485.90000000000003 269.20000000000005 C 492.1 269.20000000000005 498.3 269.20000000000005 504.6 269.20000000000005 C 508.40000000000003 269.20000000000005 510.20000000000005 267.30000000000007 510.3 263.50000000000006 C 510.3 260.90000000000003 510.3 258.30000000000007 510.3 255.70000000000005 C 510.3 251.40000000000003 508.5 249.60000000000005 504.2 249.60000000000005 C 498.09999999999997 249.60000000000005 492.09999999999997 249.60000000000005 486 249.60000000000005 C 485.5 249.60000000000005 485.1 249.70000000000005 484.6 249.70000000000005 L 484.6 269.1 L 484.6 269.1 z M 493.7 244 C 497.7 244 501.59999999999997 244 505.59999999999997 244 C 506.59999999999997 244 507.49999999999994 244 508.49999999999994 244.2 C 513.3 244.89999999999998 516.3 247.89999999999998 516.5 252.79999999999998 C 516.7 257.2 516.7 261.7 516.5 266.09999999999997 C 516.2 271.59999999999997 512.5 274.79999999999995 506.6 274.79999999999995 C 498.90000000000003 274.9 491.20000000000005 274.79999999999995 483.5 274.79999999999995 C 482.4 274.79999999999995 481.3 274.79999999999995 480.2 274.79999999999995 C 478.9 274.79999999999995 478.3 274.29999999999995 478.4 272.99999999999994 C 478.4 263.8999999999999 478.4 254.79999999999995 478.4 245.69999999999993 C 478.4 244.39999999999992 479 243.89999999999992 480.29999999999995 243.89999999999992 C 484.7 244 489.2 244 493.7 244 L 493.7 244 z M 312.1 269.2 C 315.1 269.2 318.1 269.2 321.1 269.2 C 323.90000000000003 269.2 325.3 267.8 325.40000000000003 265.09999999999997 C 325.50000000000006 261.4 325.50000000000006 257.59999999999997 325.40000000000003 253.89999999999998 C 325.3 251.09999999999997 323.90000000000003 249.7 321.20000000000005 249.7 C 315.20000000000005 249.7 309.20000000000005 249.7 303.1 249.7 C 300.3 249.7 298.8 251.2 298.8 254 C 298.7 257.7 298.7 261.3 298.8 265 C 298.8 267.9 300.3 269.3 303.2 269.3 C 306.1 269.2 309.1 269.2 312.1 269.2 L 312.1 269.2 z M 312 244 C 315.5 244 318.9 244 322.4 244 C 328.5 244 331.59999999999997 247.1 331.59999999999997 253.2 C 331.59999999999997 257.4 331.59999999999997 261.59999999999997 331.59999999999997 265.8 C 331.59999999999997 271.7 328.49999999999994 274.8 322.59999999999997 274.90000000000003 C 315.49999999999994 275.00000000000006 308.4 275.00000000000006 301.29999999999995 274.90000000000003 C 295.49999999999994 274.90000000000003 292.49999999999994 271.8 292.4 266.00000000000006 C 292.29999999999995 261.6000000000001 292.29999999999995 257.20000000000005 292.4 252.90000000000006 C 292.5 247.20000000000007 295.59999999999997 244.20000000000007 301.2 244.10000000000005 L 312 244 L 312 244 z M 273 274.8 C 269 274.8 264.9 274.8 260.9 274.8 C 254.59999999999997 274.8 251.49999999999997 271.7 251.49999999999997 265.5 C 251.49999999999997 261.4 251.49999999999997 257.2 251.49999999999997 253.1 C 251.49999999999997 247.1 254.59999999999997 244 260.59999999999997 244 C 269.09999999999997 244 277.59999999999997 244 286.09999999999997 244 C 287.99999999999994 244 288.29999999999995 244.3 288.29999999999995 246.2 C 288.29999999999995 249.6 288.29999999999995 249.6 284.9 249.6 C 277.5 249.6 270.09999999999997 249.6 262.79999999999995 249.6 C 259.19999999999993 249.6 257.9 250.9 257.9 254.5 C 257.9 257.9 257.9 261.3 257.9 264.7 C 257.9 267.8 259.29999999999995 269.2 262.4 269.2 C 270.2 269.2 277.9 269.2 285.7 269.2 C 288.2 269.2 288.3 269.4 288.4 271.8 C 288.4 272 288.4 272.2 288.4 272.40000000000003 C 288.4 274.6 288.2 274.8 286 274.8 C 281.6 274.8 277.3 274.8 273 274.8 M 410.5 274.8 C 407.2 274.8 403.8 274.8 400.5 274.8 C 394.7 274.7 391.6 271.6 391.5 265.8 C 391.5 259.2 391.5 252.60000000000002 391.5 246 C 391.5 244.2 391.8 244 393.6 243.9 C 394.3 243.9 395 243.9 395.8 243.9 C 397.5 243.9 397.8 244.20000000000002 397.8 246 C 397.8 252.1 397.8 258.1 397.8 264.2 C 397.8 267.9 399.1 269.2 402.7 269.2 C 408 269.2 413.2 269.2 418.5 269.2 C 421.9 269.2 423.2 267.8 423.2 264.4 C 423.2 258.29999999999995 423.2 252.2 423.2 246.09999999999997 C 423.2 244.19999999999996 423.4 243.99999999999997 425.3 243.99999999999997 C 426.1 243.99999999999997 426.8 243.99999999999997 427.6 243.99999999999997 C 429 243.89999999999998 429.5 244.49999999999997 429.5 245.89999999999998 C 429.5 249.39999999999998 429.5 252.79999999999998 429.5 256.29999999999995 C 429.5 259.29999999999995 429.5 262.29999999999995 429.5 265.19999999999993 C 429.5 271.79999999999995 426.5 274.79999999999995 419.8 274.79999999999995 C 416.7 274.8 413.6 274.8 410.5 274.8 M 453.8 244 C 457.2 244 460.5 244 463.90000000000003 244 C 469.6 244.1 472.8 247.2 472.8 252.9 C 472.8 259.5 472.8 266.2 472.8 272.8 C 472.8 274.5 472.5 274.8 470.8 274.8 C 466.2 274.8 466.6 275.2 466.6 270.6 C 466.6 265.3 466.6 259.90000000000003 466.6 254.60000000000002 C 466.6 250.8 465.3 249.60000000000002 461.6 249.60000000000002 C 456.40000000000003 249.60000000000002 451.3 249.60000000000002 446.1 249.60000000000002 C 442.40000000000003 249.60000000000002 441.20000000000005 250.90000000000003 441.20000000000005 254.60000000000002 C 441.20000000000005 260.6 441.20000000000005 266.6 441.20000000000005 272.6 C 441.20000000000005 274.5 440.90000000000003 274.8 439.00000000000006 274.8 C 434.50000000000006 274.8 434.90000000000003 275.1 434.90000000000003 270.7 C 434.90000000000003 264.9 434.90000000000003 259.2 434.90000000000003 253.39999999999998 C 434.90000000000003 252.09999999999997 435.00000000000006 250.79999999999998 435.40000000000003 249.59999999999997 C 436.40000000000003 246.09999999999997 439.20000000000005 244.19999999999996 443.3 244.09999999999997 C 443.40000000000003 244.09999999999997 443.6 244.09999999999997 443.7 244.09999999999997 L 453.8 244 L 453.8 244 z M 357.4 257.1 L 359.4 257.1 L 382.29999999999995 257.1 C 384.4 257.1 384.59999999999997 257.40000000000003 384.59999999999997 259.40000000000003 C 384.59999999999997 262.70000000000005 384.59999999999997 262.70000000000005 381.29999999999995 262.70000000000005 L 357.4 262.70000000000005 C 357.4 265.50000000000006 357.4 268.20000000000005 357.4 270.90000000000003 C 357.4 275.20000000000005 357.7 274.90000000000003 353.4 274.90000000000003 C 351.4 274.90000000000003 351.09999999999997 274.70000000000005 351.09999999999997 272.70000000000005 C 351.09999999999997 266.30000000000007 351.09999999999997 259.80000000000007 351.09999999999997 253.40000000000003 C 351.09999999999997 251.20000000000005 351.4 249.10000000000002 352.79999999999995 247.30000000000004 C 354.4 245.20000000000005 356.59999999999997 244.30000000000004 359.09999999999997 244.30000000000004 C 368.2 244.20000000000005 377.29999999999995 244.20000000000005 386.4 244.20000000000005 C 387.5 244.20000000000005 387.9 244.70000000000005 388 245.80000000000004 C 388.2 249.70000000000005 388.2 249.80000000000004 384.3 249.80000000000004 L 362.6 249.80000000000004 C 358.6 249.80000000000004 357.40000000000003 251.00000000000003 357.40000000000003 255.10000000000005 L 357.40000000000003 257.1 M 126.9 189.5 L 136.5 172.4 L 146.1 189.5 C 139.7 187.8 133.5 187.8 126.9 189.5 M 172.9 215.9 C 178.70000000000002 219.20000000000002 184.1 222.3 189.8 225.5 C 184.10000000000002 228.7 178.70000000000002 231.8 172.9 235.1 C 174.6 228.7 174.6 222.4 172.9 215.9 M 100.5 235.1 L 83.6 225.5 C 89.3 222.3 94.69999999999999 219.2 100.5 215.9 C 98.8 222.4 98.8 228.6 100.5 235.1 M 174.1 188.1 L 169 206.7 C 165.5 201 161.2 196.6 155.4 193.1 L 174.1 188.1 M 174.1 262.7 L 155.5 257.7 C 161.2 254.2 165.7 249.89999999999998 169.1 244.1 L 174.1 262.7 M 99.3 262.7 C 101 256.4 102.6 250.39999999999998 104.3 244.1 C 107.7 249.79999999999998 112.1 254.2 118 257.7 L 99.3 262.7 M 118 193.1 C 112.2 196.6 107.9 200.9 104.4 206.7 L 99.30000000000001 188.1 C 105.6 189.8 111.6 191.4 118 193.1" stroke-linecap="round"/>
</g>
</svg>