<?xml version="1.0" encoding="UTF-8"?>
<svg xmlns:xodm="http://www.corel.com/coreldraw/odm/2003" xmlns="http://www.w3.org/2000/svg" xmlns:xlink="http://www.w3.org/1999/xlink" version="1.1" id="Layer_1" x="0px" y="0px" viewBox="0 0 2500 827" style="enable-background:new 0 0 2500 827;" xml:space="preserve">
<style type="text/css">
	.st0{fill:#E62058;}
</style>
<g id="Layer_x0020_1">
	<g id="_2090540972608">
		<g id="Group_1303">
			<path id="Path_2898" class="st0" d="M616.7,310.5H207.6c-112.4,0-204,88.7-207,201.1c0,3,2,5.9,5.9,5.9h409.1     c112.4,0,204-88.7,207-201.1C622.6,313.5,619.6,310.5,616.7,310.5L616.7,310.5L616.7,310.5z"></path>
			<path id="Path_2899" class="st0" d="M824.7,0H208.6C96.2,0,4.6,88.7,1.6,201.1c0,3,2,5.9,4.9,5.9h617c112.4,0,204-88.7,207-201.1     C830.6,3,827.6,0,824.7,0L824.7,0L824.7,0z"></path>
			<circle id="Ellipse_9" class="st0" cx="104.1" cy="723.5" r="103.5"></circle>
			<rect id="Rectangle_1591" x="1271.2" y="126.2" class="st0" width="100.5" height="561.8"></rect>
			<path id="Path_2900" class="st0" d="M2499.4,496.8c0-104.5-73.9-192.2-177.4-192.2c-111.4,0-182.4,91.7-182.4,196.2     c-3.9,103.5,76.9,191.2,180.4,195.2c5.9,0,10.8,0,16.8,0c58.2,1,114.3-23.7,153.8-67l-57.2-57.2c-24.6,26.6-58.2,42.4-94.6,43.4     c-52.2,2-96.6-37.5-101.5-88.7h260.2c2-9.9,2-18.7,2-28.6V496.8z M2242.1,452.4c7.9-38.4,41.4-66,80.8-66c37.5,0,70,28.6,73.9,66     H2242.1L2242.1,452.4z"></path>
			<path id="Path_2901" class="st0" d="M1723.6,348l-6.9-5.9c-30.6-24.6-70-38.4-109.4-37.5c-103.5,0-184.3,85.8-184.3,196.2     c0,48.3,16.8,95.6,48.3,132.1c35.5,40.4,87.7,64.1,141.9,63.1c38.4,0,74.9-12.8,104.5-37.5l6.9-5.9V688h90.7V312.5h-90.7V348l0,0     H1723.6z M1619.1,616.1c-62.1-2-110.4-53.2-109.4-114.3c-1-62.1,47.3-113.4,109.4-115.3c62.1,2,110.4,53.2,109.4,115.3     C1729.5,563.8,1681.2,615.1,1619.1,616.1L1619.1,616.1z"></path>
			<path id="Path_2902" class="st0" d="M2076.5,304.6c-39.4,0-78.9,12.8-109.4,37.5l-6.9,5.9v-35.5h-90.7V688h90.7V491.9     c0-30.6,12.8-59.1,35.5-79.8c19.7-16.8,43.4-26.6,70-26.6c16.8,0,33.5,3.9,48.3,11.8l29.6-81.8c-20.7-7.9-43.4-12.8-66-12.8l0,0     L2076.5,304.6z"></path>
			<path id="Path_2903" class="st0" d="M1115.5,231.6L1115.5,231.6c15.8-16.8,38.4-25.6,61.1-23.7c8.9,0,18.7,1,27.6,3l13.8-79.8     c-18.7-3.9-37.5-5.9-56.2-5.9c-43.4-1-84.8,14.8-116.3,43.4c-27.6,26.6-40.4,64.1-40.4,122.2v19.7h-69v78.9h69V687h94.6V389.4     h107.4v-78.9h-107.4v-16.8c-3-22.7,3-45.3,15.8-64.1v1V231.6z"></path>
		</g>
	</g>
</g>
</svg>
