<?xml version="1.0" encoding="UTF-8" standalone="no" ?>
<!DOCTYPE svg PUBLIC "-//W3C//DTD SVG 1.1//EN" "http://www.w3.org/Graphics/SVG/1.1/DTD/svg11.dtd">
<svg xmlns="http://www.w3.org/2000/svg" xmlns:xlink="http://www.w3.org/1999/xlink" version="1.1" width="1080" height="1080" viewBox="0 0 1080 1080" xml:space="preserve">
<desc>Created with Fabric.js 5.2.4</desc>
<defs>
</defs>
<g transform="matrix(1 0 0 1 540 540)" id="25e31a38-b180-44aa-b5a3-4eac5f37f632"  >
<rect style="stroke: none; stroke-width: 1; stroke-dasharray: none; stroke-linecap: butt; stroke-dashoffset: 0; stroke-linejoin: miter; stroke-miterlimit: 4; fill: rgb(255,255,255); fill-rule: nonzero; opacity: 1; visibility: hidden;" vector-effect="non-scaling-stroke"  x="-540" y="-540" rx="0" ry="0" width="1080" height="1080" />
</g>
<g transform="matrix(1 0 0 1 540 540)" id="0bf1e518-72b7-4242-a573-d7c244225549"  >
</g>
<g transform="matrix(11.25 0 0 11.25 540 540)"  >
<g style=""   >
		<g transform="matrix(1 0 0 1 0 0)"  >
<circle style="stroke: none; stroke-width: 1; stroke-dasharray: none; stroke-linecap: butt; stroke-dashoffset: 0; stroke-linejoin: miter; stroke-miterlimit: 4; fill: rgb(83,222,233); fill-rule: nonzero; opacity: 1;" vector-effect="non-scaling-stroke"  cx="0" cy="0" r="48" />
</g>
		<g transform="matrix(1 0 0 1 -0.12 0.1)"  >
<path style="stroke: none; stroke-width: 1; stroke-dasharray: none; stroke-linecap: butt; stroke-dashoffset: 0; stroke-linejoin: miter; stroke-miterlimit: 4; fill: rgb(99,48,1); fill-rule: evenodd; opacity: 1;" vector-effect="non-scaling-stroke"  transform=" translate(-47.88, -48.1)" d="M 47.858 79.875 C 38.516 79.868 30.991999999999997 77.626 25.733999999999998 73.6 C 20.412999999999997 69.52499999999999 17.589999999999996 63.742999999999995 17.589999999999996 57.199999999999996 C 17.589999999999996 50.895999999999994 20.406999999999996 46.349999999999994 23.593999999999994 43.276999999999994 C 26.090999999999994 40.86899999999999 28.846999999999994 39.32699999999999 30.765999999999995 38.43899999999999 C 30.237966455103845 36.82634088240326 29.75114156099864 35.20047911277523 29.305999999999987 33.563 C 28.657999999999994 31.152999999999995 28.021999999999995 28.325999999999993 28.021999999999995 26.253999999999994 C 28.021999999999995 23.801999999999992 28.556999999999995 21.338999999999995 29.998999999999995 19.424999999999994 C 31.521999999999995 17.403999999999993 33.815 16.320999999999994 36.57299999999999 16.320999999999994 C 38.72899999999999 16.320999999999994 40.55899999999999 17.120999999999995 41.992999999999995 18.499999999999993 C 43.361999999999995 19.817999999999994 44.272999999999996 21.569999999999993 44.90299999999999 23.394999999999992 C 46.00899999999999 26.602999999999994 46.43999999999999 30.632999999999992 46.55999999999999 34.654999999999994 L 49.20299999999999 34.654999999999994 C 49.322999999999986 30.632999999999996 49.75399999999999 26.602999999999994 50.859999999999985 23.394999999999996 C 51.48999999999999 21.569999999999997 52.40099999999998 19.817999999999998 53.76999999999998 18.499999999999996 C 55.20399999999998 17.119999999999997 57.033999999999985 16.319999999999997 59.18999999999998 16.319999999999997 C 61.947999999999986 16.319999999999997 64.24099999999999 17.403999999999996 65.76399999999998 19.424999999999997 C 67.20599999999997 21.339 67.74099999999999 23.801999999999996 67.74099999999999 26.254999999999995 C 67.74099999999999 28.325999999999997 67.10499999999999 31.152999999999995 66.45699999999998 33.562999999999995 C 66.01190477057621 35.20049234404496 65.5250795238629 36.82635529128752 64.99699999999999 38.43900000000001 C 66.91599999999998 39.32699999999999 69.67199999999998 40.86899999999999 72.16899999999998 43.276999999999994 C 75.35599999999998 46.349999999999994 78.17299999999999 50.895999999999994 78.17299999999999 57.199999999999996 C 78.17299999999999 63.742999999999995 75.35 69.52499999999999 70.02899999999998 73.6 C 64.77199999999998 77.62599999999999 57.246999999999986 79.868 47.90499999999999 79.875 L 47.85799999999999 79.875 z" stroke-linecap="round" />
</g>
		<g transform="matrix(1 0 0 1 -0.12 -0.25)"  >
<path style="stroke: none; stroke-width: 1; stroke-dasharray: none; stroke-linecap: butt; stroke-dashoffset: 0; stroke-linejoin: miter; stroke-miterlimit: 4; fill: rgb(209,136,79); fill-rule: nonzero; opacity: 1;" vector-effect="non-scaling-stroke"  transform=" translate(-47.88, -47.75)" d="M 36.573 18.653 C 32.533 18.653 30.673000000000002 21.698 30.673000000000002 25.909 C 30.673000000000002 29.256 32.833 35.959 33.721000000000004 38.569 C 33.92 39.156000000000006 33.607000000000006 39.799 33.035000000000004 40.027 C 29.797000000000004 41.317 20.241000000000003 46.039 20.241000000000003 56.855000000000004 C 20.241000000000003 68.248 29.952000000000005 76.83800000000001 47.86 76.852 L 47.903 76.852 C 65.811 76.83800000000001 75.52199999999999 68.248 75.52199999999999 56.855000000000004 C 75.52199999999999 46.039 65.966 41.316 62.727999999999994 40.027 C 62.149998516826706 39.79861634747576 61.84948571785148 39.15991713332724 62.041999999999994 38.569 C 62.928999999999995 35.959 65.08999999999999 29.256 65.08999999999999 25.909000000000002 C 65.08999999999999 21.698 63.22999999999999 18.653000000000002 59.18999999999999 18.653000000000002 C 53.37399999999999 18.653000000000002 51.92399999999999 26.975 51.81999999999999 35.907000000000004 C 51.81783613954527 36.50023335554944 51.33921209487286 36.98153127756639 50.745999999999995 36.987 L 45.01599999999999 36.987 C 44.42599999999999 36.987 43.94899999999999 36.503 43.94199999999999 35.907000000000004 C 43.83899999999999 26.975 42.388999999999996 18.653000000000002 36.57299999999999 18.653000000000002 z" stroke-linecap="round" />
</g>
		<g transform="matrix(1 0 0 1 -0.1 18.9)"  >
<path style="stroke: none; stroke-width: 1; stroke-dasharray: none; stroke-linecap: butt; stroke-dashoffset: 0; stroke-linejoin: miter; stroke-miterlimit: 4; fill: rgb(254,220,144); fill-rule: nonzero; opacity: 1;" vector-effect="non-scaling-stroke"  transform=" translate(-47.9, -66.9)" d="M 47.903 73.202 C 34.745 73.202 20.262999999999998 66.087 20.241 56.876 L 20.241 56.919 C 20.241 68.322 29.968 76.916 47.903 76.916 C 65.838 76.916 75.564 68.322 75.564 56.919 L 75.564 56.876 C 75.54199999999999 66.086 61.06099999999999 73.202 47.90299999999999 73.202 z" stroke-linecap="round" />
</g>
		<g transform="matrix(1 0 0 1 -0.1 6.05)"  >
<path style="stroke: none; stroke-width: 1; stroke-dasharray: none; stroke-linecap: butt; stroke-dashoffset: 0; stroke-linejoin: miter; stroke-miterlimit: 4; fill: rgb(99,48,1); fill-rule: nonzero; opacity: 1;" vector-effect="non-scaling-stroke"  transform=" translate(-47.9, -54.05)" d="M 40.592 54.047 C 40.592 57.157 39.137 58.777 37.342 58.777 C 35.548 58.777 34.092999999999996 57.157000000000004 34.092999999999996 54.047 C 34.092999999999996 50.937 35.547999999999995 49.31699999999999 37.342999999999996 49.31699999999999 C 39.13699999999999 49.31699999999999 40.592 50.93699999999999 40.592 54.047 z M 61.712 54.047 C 61.712 57.157 60.257000000000005 58.777 58.462 58.777 C 56.668000000000006 58.777 55.214000000000006 57.157000000000004 55.214000000000006 54.047 C 55.214000000000006 50.937 56.668000000000006 49.31699999999999 58.46300000000001 49.31699999999999 C 60.257000000000005 49.31699999999999 61.71300000000001 50.93699999999999 61.71300000000001 54.047 z" stroke-linecap="round" />
</g>
</g>
</g>
</svg>