<svg xmlns="http://www.w3.org/2000/svg" xmlns:xlink="http://www.w3.org/1999/xlink" version="1.0" id="katman_1" x="0px" y="0px" style="enable-background:new 0 0 600 450;" xml:space="preserve" viewBox="83.6 172.4 433.05 106">
<style type="text/css">
	.st0{fill-rule:evenodd;clip-rule:evenodd;fill:#010202;}
</style>
<g>
	<path class="st0" d="M136.6,278.4c-0.7-1.4-1.5-2.8-2.2-4.2c-2.4-4.2-4.8-8.4-7.4-13c6.6,1.6,12.9,1.7,19.5,0   c-0.4,0.7-0.6,1.1-0.8,1.6c-2.7,4.8-5.4,9.5-8.1,14.3c-0.2,0.4-0.4,0.9-0.6,1.3C136.8,278.4,136.6,278.4,136.6,278.4z M167.8,225.4   c0,17.1-13.9,31.1-31.1,31.1c-17.3,0-31.2-13.9-31.2-31.1c0-17.1,14-31,31.2-31C153.9,194.3,167.8,208.2,167.8,225.4 M234.1,222.4   c-6.8,0-13.6,0-20.4,0c-2.3,0-2.8-0.5-2.8-2.8c0-1.2,0-2.3,0-3.5c0-1.2,0.7-1.9,1.9-2c0.5,0,1.1,0,1.6,0l35.7,0l1.4,0   c5.7,0,6-3.1,5.6-6.9c-0.2-1.6-1.2-2.8-2.8-3.1c-1.1-0.2-2.2-0.4-3.3-0.4c-8.8,0-17.6,0-26.3,0c-2.2,0-4.3-0.2-6.5-0.6   c-4.8-1-7.5-3.9-8-8.8c-0.3-2.8-0.2-5.7,0.1-8.5c0.4-3.7,2.5-6.4,6.1-7.5c2.2-0.7,4.5-1.1,6.8-1.2c13.2-0.1,26.3-0.1,39.5-0.1   c1.9,0,2.5,0.6,2.6,2.5c0,1.2,0,2.4,0,3.6c-0.1,1.5-0.7,2-2.2,2.1c-0.4,0-0.9,0-1.3,0c-11.9,0-23.7,0-35.6,0c-1.1,0-2.2,0-3.3,0.2   c-2.6,0.6-3.5,2.1-3.4,5.5c0.1,2.6,1.2,4,3.7,4.4c0.9,0.1,1.8,0.2,2.7,0.2c8.7,0,17.5-0.1,26.2,0.1c2.5,0,5.1,0.3,7.6,0.9   c4,1,6.3,3.8,6.8,7.9c0.3,2.6,0.3,5.3,0.1,7.9c-0.4,5.6-3.6,8.7-9.5,9.5c-1.7,0.2-3.5,0.3-5.2,0.3C246,222.4,240,222.4,234.1,222.4    M443.9,200.2c0-3,0.1-6,0-8.9c-0.1-3.7-2.3-5.9-6-5.9c-8.6,0-17.3,0-25.9,0c-3.8,0-5.9,2.1-6.1,5.9c-0.1,2.7,0,5.5,0,8.2   c0,0.2,0.1,0.4,0.2,0.7H443.9L443.9,200.2z M405.8,208.6v1.6c0,3.3,0,6.6,0,10c0,1.7-0.6,2.2-2.3,2.3c-1.4,0-2.9,0-4.3,0   c-2.2,0-2.7-0.5-2.7-2.8c0-1.4,0-2.8,0-4.2c0-8.1,0-16.3,0-24.4c0-1.1,0.1-2.3,0.2-3.4c0.7-5.7,4.3-9.4,10-10.2   c1.3-0.2,2.6-0.3,3.9-0.3c9.5,0,19.1,0,28.6,0c9.6,0,14.1,4.6,14.1,14.1c0,9.4,0,18.9,0,28.3c0,2.4-0.5,2.9-2.9,2.9   c-1.4,0-2.8,0-4.2,0c-1.7,0-2.3-0.6-2.4-2.4c0-3.3,0-6.5,0-9.8v-1.6C443.9,208.6,405.8,208.6,405.8,208.6z M470.6,198.1   c0.5,0,1,0.1,1.4,0.1c9.6,0,19.2,0,28.8,0c0.8,0,1.6,0,2.4-0.2c2.5-0.4,3.7-1.8,3.8-4.3c0-1.1,0-2.2,0-3.3c-0.1-3.1-1.5-4.7-4.6-5   c-0.6-0.1-1.2,0-1.7,0c-9.5,0-19,0-28.5,0h-1.6C470.6,185.4,470.6,198.1,470.6,198.1z M470.5,206.6c0,4.3,0,8.6,0,12.9   c0,2.4-0.5,2.9-2.8,2.9c-1.4,0-2.9,0-4.3,0c-1.6,0-2.1-0.6-2.2-2.2c0-0.3,0-0.6,0-0.9v-39.1c0-2.6,0.5-3.1,3.1-3.1   c12.5,0,25.1,0,37.6,0c2.2,0,4.4,0.2,6.5,0.6c4.9,1,7.7,4.3,8,9.3c0.1,2.2,0.1,4.4,0,6.6c-0.3,3.7-2,6.6-5.6,8.1   c-0.3,0.1-0.5,0.3-0.8,0.5c0.2,0.1,0.3,0.3,0.4,0.3c4.3,1.8,6,5.3,6.1,9.8c0.1,2.6,0.1,5.2,0,7.8c0,1.7-0.6,2.2-2.3,2.2   c-1.6,0-3.2,0-4.8,0c-1.6,0-2.2-0.6-2.2-2.2c0-2.4,0-4.8,0-7.2c0-4.2-2-6.4-6.1-6.5c-10-0.1-20,0-29.9,0   C470.9,206.5,470.8,206.5,470.5,206.6z M301.8,185.4c-4.4,0-8.8,0-13.2,0c-4.3,0-6.5,2.1-6.5,6.5c0,5.3,0,10.6,0,15.9   c0,4.2,2.2,6.4,6.5,6.4c8.8,0,17.5,0,26.3,0c4.3,0,6.4-2.1,6.5-6.4c0.1-5.3,0.1-10.7,0-16c-0.1-4.4-2.2-6.4-6.6-6.4   C310.5,185.3,306.1,185.4,301.8,185.4z M301.7,222.4c-5.1,0-10.1,0-15.2,0c-1.2,0-2.3-0.1-3.5-0.2c-6.1-0.9-9.9-4.9-10.2-11.1   c-0.3-6.3-0.1-12.7-0.1-19.1c0-1.8,0-3.6,0.4-5.3c1-5.2,4.4-8.4,9.6-9.3c1.2-0.2,2.4-0.3,3.6-0.3c10.3,0,20.5,0,30.8,0   c0.8,0,1.6,0,2.5,0.1c6.8,0.8,10.9,4.9,11.1,11.8c0.2,7.2,0.2,14.3,0,21.5c-0.2,7.2-4.9,11.5-12.2,11.8c-0.2,0-0.4,0-0.6,0   C312.5,222.4,307.1,222.4,301.7,222.4C301.7,222.4,301.7,222.4,301.7,222.4z M369.4,222.4c-5.8,0-11.6,0-17.4,0   c-1.3,0-2.6-0.1-3.9-0.3c-5.6-0.9-9.1-4.4-9.9-10c-0.1-1-0.2-1.9-0.2-2.9c0-9.8,0-19.5,0-29.3c0-2.3,0.5-2.8,2.8-2.8   c1.2,0,2.3,0,3.5,0c2.6,0,3.1,0.4,3.1,3v24.3c0,1.1,0,2.1,0,3.2c0.1,4.5,2.2,6.6,6.7,6.6c11.2,0,22.4,0,33.6,0c0.5,0,1,0,1.4,0   c1.8,0.1,2.3,0.6,2.3,2.4c0,1.1,0,2.2,0,3.3c0,2-0.6,2.5-2.5,2.5C382.4,222.4,375.9,222.4,369.4,222.4 M216.4,256.7h25.2   c2,0,2.2,0.3,2.2,2.3v0.4c0,2.6-0.1,2.7-2.7,2.7h-25c0,0.9,0,1.6,0,2.3c0,3.4,1.4,4.7,4.7,4.7c8,0,15.9,0,23.9,0   c2.3,0,2.5,0.2,2.6,2.6v0.9c0,1.9-0.3,2.2-2.2,2.2c-6.4,0-12.8,0-19.2,0c-2.4,0-4.8,0-7.2,0c-5.6-0.1-8.7-3.1-8.8-8.7   c-0.1-4.4-0.1-8.9,0-13.3c0.1-5.6,3.1-8.6,8.6-8.7c9-0.1,17.9,0,26.9,0c1.3,0,1.9,0.6,1.9,1.9c0.1,3.7,0.1,3.7-3.6,3.7   c-7.2,0-14.5,0.1-21.7,0C217.9,249.5,215.5,250.6,216.4,256.7 M484.6,269.1c0.5,0,0.9,0.1,1.3,0.1c6.2,0,12.4,0,18.7,0   c3.8,0,5.6-1.9,5.7-5.7c0-2.6,0-5.2,0-7.8c0-4.3-1.8-6.1-6.1-6.1c-6.1,0-12.1,0-18.2,0c-0.5,0-0.9,0.1-1.4,0.1V269.1L484.6,269.1z    M493.7,244c4,0,7.9,0,11.9,0c1,0,1.9,0,2.9,0.2c4.8,0.7,7.8,3.7,8,8.6c0.2,4.4,0.2,8.9,0,13.3c-0.3,5.5-4,8.7-9.9,8.7   c-7.7,0.1-15.4,0-23.1,0c-1.1,0-2.2,0-3.3,0c-1.3,0-1.9-0.5-1.8-1.8c0-9.1,0-18.2,0-27.3c0-1.3,0.6-1.8,1.9-1.8   C484.7,244,489.2,244,493.7,244L493.7,244z M312.1,269.2c3,0,6,0,9,0c2.8,0,4.2-1.4,4.3-4.1c0.1-3.7,0.1-7.5,0-11.2   c-0.1-2.8-1.5-4.2-4.2-4.2c-6,0-12,0-18.1,0c-2.8,0-4.3,1.5-4.3,4.3c-0.1,3.7-0.1,7.3,0,11c0,2.9,1.5,4.3,4.4,4.3   C306.1,269.2,309.1,269.2,312.1,269.2L312.1,269.2z M312,244c3.5,0,6.9,0,10.4,0c6.1,0,9.2,3.1,9.2,9.2c0,4.2,0,8.4,0,12.6   c0,5.9-3.1,9-9,9.1c-7.1,0.1-14.2,0.1-21.3,0c-5.8,0-8.8-3.1-8.9-8.9c-0.1-4.4-0.1-8.8,0-13.1c0.1-5.7,3.2-8.7,8.8-8.8L312,244   L312,244z M273,274.8c-4,0-8.1,0-12.1,0c-6.3,0-9.4-3.1-9.4-9.3c0-4.1,0-8.3,0-12.4c0-6,3.1-9.1,9.1-9.1c8.5,0,17,0,25.5,0   c1.9,0,2.2,0.3,2.2,2.2c0,3.4,0,3.4-3.4,3.4c-7.4,0-14.8,0-22.1,0c-3.6,0-4.9,1.3-4.9,4.9c0,3.4,0,6.8,0,10.2   c0,3.1,1.4,4.5,4.5,4.5c7.8,0,15.5,0,23.3,0c2.5,0,2.6,0.2,2.7,2.6c0,0.2,0,0.4,0,0.6c0,2.2-0.2,2.4-2.4,2.4   C281.6,274.8,277.3,274.8,273,274.8 M410.5,274.8c-3.3,0-6.7,0-10,0c-5.8-0.1-8.9-3.2-9-9c0-6.6,0-13.2,0-19.8c0-1.8,0.3-2,2.1-2.1   c0.7,0,1.4,0,2.2,0c1.7,0,2,0.3,2,2.1c0,6.1,0,12.1,0,18.2c0,3.7,1.3,5,4.9,5c5.3,0,10.5,0,15.8,0c3.4,0,4.7-1.4,4.7-4.8   c0-6.1,0-12.2,0-18.3c0-1.9,0.2-2.1,2.1-2.1c0.8,0,1.5,0,2.3,0c1.4-0.1,1.9,0.5,1.9,1.9c0,3.5,0,6.9,0,10.4c0,3,0,6,0,8.9   c0,6.6-3,9.6-9.7,9.6C416.7,274.8,413.6,274.8,410.5,274.8 M453.8,244c3.4,0,6.7,0,10.1,0c5.7,0.1,8.9,3.2,8.9,8.9   c0,6.6,0,13.3,0,19.9c0,1.7-0.3,2-2,2c-4.6,0-4.2,0.4-4.2-4.2c0-5.3,0-10.7,0-16c0-3.8-1.3-5-5-5c-5.2,0-10.3,0-15.5,0   c-3.7,0-4.9,1.3-4.9,5c0,6,0,12,0,18c0,1.9-0.3,2.2-2.2,2.2c-4.5,0-4.1,0.3-4.1-4.1c0-5.8,0-11.5,0-17.3c0-1.3,0.1-2.6,0.5-3.8   c1-3.5,3.8-5.4,7.9-5.5c0.1,0,0.3,0,0.4,0L453.8,244L453.8,244z M357.4,257.1h2l22.9,0c2.1,0,2.3,0.3,2.3,2.3c0,3.3,0,3.3-3.3,3.3   h-23.9c0,2.8,0,5.5,0,8.2c0,4.3,0.3,4-4,4c-2,0-2.3-0.2-2.3-2.2c0-6.4,0-12.9,0-19.3c0-2.2,0.3-4.3,1.7-6.1c1.6-2.1,3.8-3,6.3-3   c9.1-0.1,18.2-0.1,27.3-0.1c1.1,0,1.5,0.5,1.6,1.6c0.2,3.9,0.2,4-3.7,4h-21.7c-4,0-5.2,1.2-5.2,5.3V257.1 M126.9,189.5l9.6-17.1   l9.6,17.1C139.7,187.8,133.5,187.8,126.9,189.5 M172.9,215.9c5.8,3.3,11.2,6.4,16.9,9.6c-5.7,3.2-11.1,6.3-16.9,9.6   C174.6,228.7,174.6,222.4,172.9,215.9 M100.5,235.1l-16.9-9.6c5.7-3.2,11.1-6.3,16.9-9.6C98.8,222.4,98.8,228.6,100.5,235.1    M174.1,188.1l-5.1,18.6c-3.5-5.7-7.8-10.1-13.6-13.6L174.1,188.1 M174.1,262.7l-18.6-5c5.7-3.5,10.2-7.8,13.6-13.6L174.1,262.7    M99.3,262.7c1.7-6.3,3.3-12.3,5-18.6c3.4,5.7,7.8,10.1,13.7,13.6L99.3,262.7 M118,193.1c-5.8,3.5-10.1,7.8-13.6,13.6l-5.1-18.6   C105.6,189.8,111.6,191.4,118,193.1"/>
</g>
</svg>